<?xml version="1.0" standalone="no"?>
<!DOCTYPE svg PUBLIC "-//W3C//DTD SVG 1.1//EN" "http://www.w3.org/Graphics/SVG/1.1/DTD/svg11.dtd" >
<svg xmlns="http://www.w3.org/2000/svg">
    <defs>
        <font id="">
            <font-face font-family=""
                       units-per-em="2048"
                       ascent="1782"
                       descent="-784"
                       bbox="-1655 -784 4778 1727"
                    />
            <missing-glyph horiz-adv-x="0" />
            
            <glyph glyph-name="%" unicode="&#x25;" horiz-adv-x="1602" d=" M400,565 Q257,565 179,684.5 Q101,804 101,1026 Q101,1254 175.5,1368.5 Q250,1483 400,1483 Q547,1483 626.5,1365 Q706,1247 707,1026 Q707,798 628.5,681.5 Q550,565 400,565 M400,695 Q478,695 517.5,777.5 Q557,860 557,1026 Q557,1191 517.5,1273.5 Q478,1356 400,1356 Q321,1356 285.5,1273 Q250,1190 250,1026 Q250,861 285.5,778 Q321,695 400,695 M1336,1463 L525,0 L367,0 L1178,1463 M1295,-20 Q1153,-20 1074.5,99 Q996,218 996,441 Q996,669 1070.5,783 Q1145,897 1295,897 Q1441,897 1521,778.5 Q1601,660 1602,441 Q1601,212 1523,96 Q1445,-20 1295,-20 M1295,109 Q1374,109 1413,191 Q1452,273 1452,441 Q1452,604 1412.5,686 Q1373,768 1295,768 Q1216,768 1180.5,686.5 Q1145,605 1145,441 Q1145,275 1180.5,192 Q1216,109 1295,109"/> 
            <glyph glyph-name="'" unicode="&#x27;" horiz-adv-x="451" d=" M370,1638 L319,1110 L194,1110 L143,1638 M451,1463 M441,1726"/> 
            <glyph glyph-name="(" unicode="&#x28;" horiz-adv-x="555" d=" M82,560 Q82,710 100,855.5 Q118,1001 155,1138 Q192,1275 248.5,1401.5 Q305,1528 383,1639 L555,1639 Q415,1408 342.5,1131.5 Q270,855 270,562 Q270,420 288.5,278.5 Q307,137 342.5,1.5 Q378,-134 431,-260.5 Q484,-387 553,-500 L383,-500 Q305,-392 248.5,-268.5 Q192,-145 155,-10.5 Q118,124 100,267.5 Q82,411 82,560 M521,1463 M511,1726 M390,0 M412,-658"/> 
            <glyph glyph-name=")" unicode="&#x29;" horiz-adv-x="535" d=" M535,559 Q535,411 517,267.5 Q499,124 461.5,-11 Q424,-146 367.5,-269 Q311,-392 233,-500 L63,-500 Q132,-387 185,-260.5 Q238,-134 274,1.5 Q310,137 328,278 Q346,419 346,562 Q346,854 274,1130.5 Q202,1407 61,1638 L233,1638 Q311,1527 367.5,1400.5 Q424,1274 461.5,1137 Q499,1000 517,854.5 Q535,709 535,559 M451,1463 M441,1726 M190,0 M212,-658"/> 
            <glyph glyph-name="*" unicode="&#x2A;" horiz-adv-x="1044" d=" M664,1638 L621,1245 L1018,1356 L1044,1163 L666,1135 L911,809 L733,713 L557,1071 L399,713 L215,809 L457,1135 L82,1163 L111,1356 L502,1245 L459,1638 M751,1463 M741,1726"/> 
            <glyph glyph-name="+" unicode="&#x2B;" horiz-adv-x="1067" d=" M659,795 L1067,795 L1067,649 L659,649 L659,227 L512,227 L512,649 L104,649 L104,795 L512,795 L512,1219 L659,1219 M580,0 M591,1463"/> 
            <glyph glyph-name="," unicode="&#x2C;" horiz-adv-x="377" d=" M362,238 L377,215 Q363,161 343.5,100 Q324,39 300.5,-23 Q277,-85 251.5,-146.5 Q226,-208 201,-264 L63,-264 Q78,-203 92.5,-137 Q107,-71 120.5,-5.5 Q134,60 145,122.5 Q156,185 164,238 M94,0"/> 
            <glyph glyph-name="-" unicode="&#x2D;" horiz-adv-x="578" d=" M82,465 L82,633 L578,633 L578,465 M324,1134 M324,0"/> 
            <glyph glyph-name="." unicode="&#x2E;" horiz-adv-x="401" d=" M147,111 Q147,149 157,175.5 Q167,202 184,218.5 Q201,235 224,242.5 Q247,250 274,250 Q300,250 323.5,242.5 Q347,235 364,218.5 Q381,202 391,175.5 Q401,149 401,111 Q401,74 391,47.5 Q381,21 364,4 Q347,-13 323.5,-21 Q300,-29 274,-29 Q247,-29 224,-21 Q201,-13 184,4 Q167,21 157,47.5 Q147,74 147,111"/> 
            <glyph glyph-name="/" unicode="&#x2F;" horiz-adv-x="763" d=" M763,1638 L219,-500 L40,-500 L585,1638 M451,1463 M441,1726 M390,0 M412,-658"/> 
            <glyph glyph-name="0" unicode="&#x30;" horiz-adv-x="1073" d=" M586,-20 Q348,-20 225.5,171 Q103,362 103,733 Q103,1119 222.5,1302 Q342,1485 586,1485 Q823,1485 948,1293.5 Q1073,1102 1073,733 Q1073,353 952.5,166.5 Q832,-20 586,-20 M586,133 Q745,133 818,276 Q891,419 891,733 Q891,1046 817.5,1188.5 Q744,1331 586,1331 Q426,1331 354.5,1189 Q283,1047 283,733 Q283,418 354.5,275.5 Q426,133 586,133"/> 
            <glyph glyph-name="1" unicode="&#x31;" horiz-adv-x="728" d=" M728,0 L552,0 L552,1022 Q552,1187 560,1274 Q531,1243 482,1202 L278,1034 L184,1155 L579,1463 L728,1463"/> 
            <glyph glyph-name="2" unicode="&#x32;" horiz-adv-x="1066" d=" M1066,0 L100,0 L100,150 L483,537 Q635,691 697.5,768.5 Q760,846 791,921.5 Q822,997 822,1084 Q822,1199 752.5,1264 Q683,1329 564,1329 Q468,1329 388,1297 Q308,1265 212,1190 L116,1311 Q322,1483 564,1483 Q769,1483 887.5,1378 Q1006,1273 1007,1094 Q1007,986 963.5,889 Q920,792 846,700.5 Q772,609 632,473 L327,172 L327,164 L1066,164"/> 
            <glyph glyph-name="3" unicode="&#x33;" horiz-adv-x="1056" d=" M708,770 L708,762 Q879,740 967.5,652 Q1056,564 1056,416 Q1056,209 911,94.5 Q766,-20 495,-20 Q252,-20 93,60 L93,228 Q186,181 292.5,156 Q399,131 497,131 Q682,131 775,203 Q868,275 868,420 Q868,549 765.5,613.5 Q663,678 458,678 L317,678 L317,832 L460,832 Q634,832 730,906 Q826,980 827,1108 Q826,1213 755,1272 Q684,1331 560,1331 Q463,1331 378.5,1304 Q294,1277 192,1209 L102,1331 Q299,1483 558,1483 Q774,1483 892.5,1385.5 Q1011,1288 1011,1121 Q1011,982 933.5,891.5 Q856,801 708,770"/> 
            <glyph glyph-name="4" unicode="&#x34;" horiz-adv-x="1132" d=" M1132,332 L919,332 L919,0 L745,0 L745,332 L44,332 L44,486 L732,1471 L919,1471 L919,494 L1132,494 M745,494 L745,955 Q745,1077 755,1278 L747,1278 Q712,1201 659,1118 L220,494"/> 
            <glyph glyph-name="5" unicode="&#x35;" horiz-adv-x="1056" d=" M130,60 L130,230 Q202,186 307.5,159.5 Q413,133 511,133 Q683,133 777.5,214.5 Q872,296 872,449 Q872,597 780,671.5 Q688,746 505,746 Q397,746 255,715 L165,772 L220,1463 L954,1463 L954,1299 L374,1299 L339,875 Q464,897 564,897 Q792,897 924,782 Q1056,667 1056,467 Q1056,239 912.5,109.5 Q769,-20 509,-20 Q391,-20 292.5,0.5 Q194,21 130,60"/> 
            <glyph glyph-name="6" unicode="&#x36;" horiz-adv-x="1073" d=" M961,1465 L961,1311 Q886,1336 785,1336 Q548,1336 426,1193 Q304,1050 291,744 L303,744 Q358,828 446.5,872 Q535,916 650,916 Q843,916 958,797 Q1073,678 1073,471 Q1073,243 947,111.5 Q821,-20 609,-20 Q382,-20 246.5,150 Q111,320 111,625 Q111,1054 278.5,1268.5 Q446,1483 781,1483 Q888,1483 961,1465 M895,471 Q895,615 822.5,694.5 Q750,774 613,774 Q520,774 445.5,733.5 Q371,693 332,631.5 Q293,570 293,506 Q293,406 333.5,318 Q374,230 445,180.5 Q516,131 607,131 Q744,131 819.5,219.5 Q895,308 895,471"/> 
            <glyph glyph-name="7" unicode="&#x37;" horiz-adv-x="1072" d=" M280,0 L880,1299 L91,1299 L91,1463 L1072,1463 L1072,1323 L478,0"/> 
            <glyph glyph-name="8" unicode="&#x38;" horiz-adv-x="1070" d=" M745,774 Q919,689 994.5,595 Q1070,501 1070,379 Q1070,197 940.5,88.5 Q811,-20 591,-20 Q354,-20 228,82.5 Q102,185 102,373 Q102,499 177.5,596.5 Q253,694 405,764 Q272,839 210,929.5 Q148,1020 149,1135 Q148,1294 268.5,1388.5 Q389,1483 585,1483 Q785,1483 904,1389 Q1023,1295 1023,1133 Q1023,1023 955.5,935 Q888,847 745,774 M593,844 Q727,899 786,966.5 Q845,1034 845,1127 Q845,1225 774.5,1281.5 Q704,1338 583,1338 Q465,1338 395,1281 Q325,1224 325,1127 Q324,1038 381,973.5 Q438,909 593,844 M554,690 Q409,628 343.5,552 Q278,476 278,371 Q278,257 358.5,190 Q439,123 587,123 Q730,123 812,191.5 Q894,260 894,377 Q894,471 821.5,543 Q749,615 587,678"/> 
            <glyph glyph-name="9" unicode="&#x39;" horiz-adv-x="1061" d=" M205,0 L205,154 Q288,127 385,127 Q624,127 746,270.5 Q868,414 879,717 L867,717 Q755,547 518,547 Q324,547 211.5,665.5 Q99,784 99,989 Q99,1216 225.5,1349.5 Q352,1483 566,1483 Q791,1483 926,1313 Q1061,1143 1061,838 Q1061,409 893,194.5 Q725,-20 389,-20 Q342,-20 287.5,-14.5 Q233,-9 205,0 M277,991 Q277,845 348.5,767.5 Q420,690 557,690 Q645,690 719.5,726 Q794,762 836.5,825.5 Q879,889 879,957 Q878,1052 840,1140 Q802,1228 730.5,1279.5 Q659,1331 566,1331 Q429,1331 353,1242 Q277,1153 277,991"/> 
            <glyph glyph-name=":" unicode="&#x3A;" horiz-adv-x="401" d=" M147,111 Q147,149 157,175.5 Q167,202 184,218.5 Q201,235 224,242.5 Q247,250 274,250 Q300,250 323.5,242.5 Q347,235 364,218.5 Q381,202 391,175.5 Q401,149 401,111 Q401,74 391,47.5 Q381,21 364,4 Q347,-13 323.5,-21 Q300,-29 274,-29 Q247,-29 224,-21 Q201,-13 184,4 Q167,21 157,47.5 Q147,74 147,111 M147,987 Q147,1026 157,1052.5 Q167,1079 184,1095.5 Q201,1112 224,1119 Q247,1126 274,1126 Q300,1126 323.5,1119 Q347,1112 364,1095.5 Q381,1079 391,1052.5 Q401,1026 401,987 Q401,950 391,924 Q381,898 364,881 Q347,864 323.5,856 Q300,848 274,848 Q247,848 224,856 Q201,864 184,881 Q167,898 157,924 Q147,950 147,987 M94,1134"/> 
            <glyph glyph-name=";" unicode="&#x3B;" horiz-adv-x="401" d=" M362,238 L377,215 Q363,161 343.5,100 Q324,39 300.5,-23 Q277,-85 251.5,-146.5 Q226,-208 201,-264 L63,-264 Q78,-203 92.5,-137 Q107,-71 120.5,-5.5 Q134,60 145,122.5 Q156,185 164,238 M147,987 Q147,1026 157,1052.5 Q167,1079 184,1095.5 Q201,1112 224,1119 Q247,1126 274,1126 Q300,1126 323.5,1119 Q347,1112 364,1095.5 Q381,1079 391,1052.5 Q401,1026 401,987 Q401,950 391,924 Q381,898 364,881 Q347,864 323.5,856 Q300,848 274,848 Q247,848 224,856 Q201,864 184,881 Q167,898 157,924 Q147,950 147,987 M94,1134 M94,0"/> 
            <glyph glyph-name="&lt;" unicode="&#x3C;" horiz-adv-x="1068" d=" M1068,238 L103,662 L103,764 L1068,1245 L1068,1085 L296,721 L1068,397 M580,0 M591,1463"/> 
            <glyph glyph-name="=" unicode="&#x3D;" horiz-adv-x="1054" d=" M116,852 L116,997 L1054,997 L1054,852 M116,444 L116,590 L1054,590 L1054,444 M580,0 M591,1463"/> 
            <glyph glyph-name="&gt;" unicode="&#x3E;" horiz-adv-x="1068" d=" M103,397 L875,719 L103,1085 L103,1245 L1068,764 L1068,662 L103,238 M580,0 M591,1463"/> 
            <glyph glyph-name="?" unicode="&#x3F;" horiz-adv-x="845" d=" M321,414 L321,451 Q321,508 328.5,554 Q336,600 355.5,640 Q375,680 408,718.5 Q441,757 491,799 Q539,840 573,873.5 Q607,907 628.5,941.5 Q650,976 660.5,1015.5 Q671,1055 671,1108 Q671,1156 656,1195.5 Q641,1235 612.5,1263.5 Q584,1292 541.5,1307.5 Q499,1323 443,1323 Q360,1323 285,1297 Q210,1271 140,1237 L77,1382 Q158,1424 252,1453.5 Q346,1483 443,1483 Q536,1483 610.5,1457.5 Q685,1432 737,1384 Q789,1336 817,1266.5 Q845,1197 845,1110 Q845,1043 831.5,990.5 Q818,938 791,893 Q764,848 724,806 Q684,764 630,717 Q578,672 545,638.5 Q512,605 493,573.5 Q474,542 467,509 Q460,476 460,432 L460,414 M273,111 Q273,149 283,175.5 Q293,202 310,218.5 Q327,235 350,242.5 Q373,250 400,250 Q426,250 449.5,242.5 Q473,235 490,218.5 Q507,202 517,175.5 Q527,149 527,111 Q527,74 517,47.5 Q507,21 490,4 Q473,-13 449.5,-21 Q426,-29 400,-29 Q373,-29 350,-21 Q327,-13 310,4 Q293,21 283,47.5 Q273,74 273,111"/> 
            <glyph glyph-name="[" unicode="&#x5B;" horiz-adv-x="569" d=" M569,-500 L164,-500 L164,1638 L569,1638 L569,1499 L346,1499 L346,-360 L569,-360 M451,1463 M441,1726 M390,0 M412,-658"/> 
            <glyph glyph-name="\" unicode="&#x5C;" horiz-adv-x="763" d=" M219,1638 L763,-500 L585,-500 L41,1638 M451,1463 M441,1726 M390,0 M412,-658"/> 
            <glyph glyph-name="]" unicode="&#x5D;" horiz-adv-x="487" d=" M81,-360 L304,-360 L304,1499 L81,1499 L81,1638 L487,1638 L487,-500 L81,-500 M251,1463 M241,1726 M190,0 M212,-658"/> 
            <glyph glyph-name="^" unicode="&#x5E;" horiz-adv-x="1089" d=" M81,549 L540,1473 L642,1473 L1089,549 L928,549 L591,1284 L242,549"/> 
            <glyph glyph-name="_" unicode="&#x5F;" horiz-adv-x="913" d=" M913,-315 L-4,-315 L-4,-184 L913,-184 M275,0 M277,-658"/> 
            <glyph glyph-name="{" unicode="&#x7B;" horiz-adv-x="675" d=" M501,882 Q501,751 441.5,675.5 Q382,600 267,575 L267,563 Q382,538 441.5,462 Q501,386 501,256 L501,-155 Q501,-215 513,-252.5 Q525,-290 547.5,-312 Q570,-334 602.5,-342 Q635,-350 675,-351 L675,-500 Q598,-499 532.5,-479 Q467,-459 419.5,-415.5 Q372,-372 345,-305.5 Q318,-239 318,-144 L318,261 Q318,324 301.5,368 Q285,412 252.5,439.5 Q220,467 172,479 Q124,491 62,491 L62,646 Q187,646 252.5,698.5 Q318,751 318,876 L318,1282 Q318,1377 345,1443.5 Q372,1510 419.5,1553.5 Q467,1597 532.5,1617 Q598,1637 675,1638 L675,1488 Q635,1487 602.5,1479 Q570,1471 547.5,1449 Q525,1427 513,1389.5 Q501,1352 501,1292 M251,1463 M241,1726 M190,0 M212,-658"/> 
            <glyph glyph-name="|" unicode="&#x7C;" horiz-adv-x="639" d=" M489,1639 L639,1639 L639,-500 L489,-500 M451,1463 M441,1726 M390,0 M412,-658"/> 
            <glyph glyph-name="}" unicode="&#x7D;" horiz-adv-x="695" d=" M256,256 Q256,387 315.5,462.5 Q375,538 490,563 L490,575 Q375,600 315.5,676 Q256,752 256,882 L256,1293 Q256,1353 244,1390.5 Q232,1428 209.5,1450 Q187,1472 154.5,1480 Q122,1488 82,1489 L82,1638 Q159,1637 224.5,1617 Q290,1597 337.5,1553.5 Q385,1510 412,1443.5 Q439,1377 439,1282 L439,877 Q439,814 455.5,770 Q472,726 504.5,698.5 Q537,671 585,659 Q633,647 695,647 L695,492 Q570,492 504.5,439.5 Q439,387 439,262 L439,-144 Q439,-239 412,-305.5 Q385,-372 337.5,-415.5 Q290,-459 224.5,-479 Q159,-499 82,-500 L82,-350 Q122,-349 154.5,-341 Q187,-333 209.5,-311 Q232,-289 244,-251.5 Q256,-214 256,-154 M451,1463 M441,1726 M490,0 M512,-658"/> 
            <glyph glyph-name="~" unicode="&#x7E;" horiz-adv-x="1068" d=" M552,653 Q515,669 485,680 Q455,691 429.5,697.5 Q404,704 381.5,706.5 Q359,709 337,709 Q308,709 277.5,699.5 Q247,690 216.5,673.5 Q186,657 157,635 Q128,613 103,588 L103,748 Q203,856 349,856 Q378,856 406.5,853.5 Q435,851 466.5,843.5 Q498,836 535,823.5 Q572,811 619,791 Q656,775 686,764 Q716,753 741.5,746.5 Q767,740 789,737.5 Q811,735 832,735 Q862,735 893.5,744.5 Q925,754 955.5,770 Q986,786 1014.5,808 Q1043,830 1068,856 L1068,698 Q1018,644 957.5,616 Q897,588 822,588 Q793,588 764.5,590.5 Q736,593 704,600.5 Q672,608 635,620.5 Q598,633 552,653"/> 
            <glyph glyph-name="­" unicode="&#xAD;" horiz-adv-x="578" d=" M82,465 L82,633 L578,633 L578,465 M324,1134 M324,0"/> 
            <glyph glyph-name="×" unicode="&#xD7;" horiz-adv-x="1038" d=" M586,825 L936,1176 L1038,1071 L690,723 L1036,375 L934,270 L584,616 L242,270 L135,375 L481,723 L133,1069 L240,1176 M580,0 M591,1463"/> 
            <glyph glyph-name="÷" unicode="&#xF7;" horiz-adv-x="1068" d=" M585,1194 Q639,1194 668.5,1163 Q698,1132 698,1071 Q697,1010 666.5,978 Q636,946 585,946 Q532,946 501,978.5 Q470,1011 470,1071 Q470,1194 585,1194 M104,649 L104,795 L1068,795 L1068,649 M585,496 Q639,496 668.5,465 Q698,434 698,373 Q698,313 667.5,280.5 Q637,248 585,248 Q530,248 500,280.5 Q470,313 470,373 Q470,496 585,496 M580,0 M591,1463"/> 
            <glyph glyph-name="।" unicode="&#x964;" horiz-adv-x="537" d=" M360,-100 L360,1234 L537,1234 L537,-100"/> 
            <glyph glyph-name="॥" unicode="&#x965;" horiz-adv-x="987" d=" M360,-100 L360,1234 L537,1234 L537,-100 M810,-100 L810,1234 L987,1234 L987,-100"/> 
            <glyph glyph-name="ം" unicode="&#xD02;" horiz-adv-x="862" d=" M65,361 Q65,530 175.5,637 Q286,744 462,744 Q641,744 751.5,639 Q862,534 862,361 Q862,188 751.5,82 Q641,-24 463,-24 Q283,-24 174,82 Q65,188 65,361 M238,358 Q238,246 299.5,181 Q361,116 463,116 Q566,116 627.5,180.5 Q689,245 689,361 Q689,476 628,540 Q567,604 462,604 Q358,604 298,539.5 Q238,475 238,358"/> 
            <glyph glyph-name="ഃ" unicode="&#xD03;" horiz-adv-x="622" d=" M344,1162 Q467,1162 544.5,1086.5 Q622,1011 622,895 Q622,779 544.5,704.5 Q467,630 344,630 Q220,630 143.5,705 Q67,780 67,895 Q67,1010 144.5,1086 Q222,1162 344,1162 M344,764 Q407,764 442.5,800.5 Q478,837 478,897 Q478,955 441.5,991.5 Q405,1028 344,1028 Q284,1028 248,992 Q212,956 212,897 Q212,838 246.5,801 Q281,764 344,764 M344,508 Q467,508 544.5,432.5 Q622,357 622,241 Q622,125 544.5,50.5 Q467,-24 344,-24 Q220,-24 143.5,51 Q67,126 67,241 Q67,356 144.5,432 Q222,508 344,508 M344,110 Q407,110 442.5,146.5 Q478,183 478,243 Q478,301 441.5,337.5 Q405,374 344,374 Q284,374 248,338 Q212,302 212,243 Q212,184 246.5,147 Q281,110 344,110"/> 
            <glyph glyph-name="അ" unicode="&#xD05;" horiz-adv-x="2978" d=" M1917,0 L1740,0 L1740,575 Q1740,750 1703.5,836.5 Q1667,923 1583,973.5 Q1499,1024 1345,1024 Q1311,1024 1279,1021 Q1367,977 1411,910 Q1455,843 1455,754 Q1455,670 1412.5,615 Q1370,560 1287,524 Q1379,492 1428,428 Q1477,364 1477,279 Q1477,141 1376.5,58.5 Q1276,-24 1091,-24 Q873,-24 750,114 Q627,252 627,481 Q627,648 694,781.5 Q761,915 896,1014 Q837,1020 765,1020 Q528,1020 395,895 Q262,770 262,559 Q262,263 511,111 L410,-18 Q253,71 166.5,223.5 Q80,376 80,567 Q80,744 159.5,880.5 Q239,1017 390.5,1089.5 Q542,1162 751,1162 Q924,1162 1072,1111 Q1206,1162 1370,1162 Q1521,1162 1632,1114 Q1743,1066 1830,957 Q1923,1068 2036,1115 Q2149,1162 2296,1162 Q2507,1162 2661,1082 Q2815,1002 2896.5,849.5 Q2978,697 2978,495 Q2978,243 2863.5,109.5 Q2749,-24 2544,-24 Q2425,-24 2334.5,29.5 Q2244,83 2195,181.5 Q2146,280 2146,402 Q2146,595 2251,711 Q2356,827 2531,827 Q2669,827 2776,732 Q2723,865 2598.5,939.5 Q2474,1014 2297,1014 Q2174,1014 2090.5,971 Q2007,928 1962,844.5 Q1917,761 1917,591 M1091,974 Q950,910 874.5,773.5 Q799,637 799,489 Q799,309 876.5,211 Q954,113 1095,113 Q1305,113 1305,283 Q1305,362 1243,404 Q1181,446 1064,446 L1025,446 L1025,590 L1054,590 Q1283,590 1283,755 Q1283,834 1235,888.5 Q1187,943 1091,974 M2806,559 Q2710,684 2566,684 Q2446,684 2382.5,611.5 Q2319,539 2319,406 Q2319,266 2376.5,193 Q2434,120 2544,120 Q2679,120 2743.5,216.5 Q2808,313 2808,505 Q2808,529 2806,559"/> 
            <glyph glyph-name="ആ" unicode="&#xD06;" horiz-adv-x="3314" d=" M1072,1111 Q1206,1162 1370,1162 Q1520,1162 1631.5,1114 Q1743,1066 1829,958 Q1912,1060 2026.5,1111 Q2141,1162 2287,1162 Q2514,1162 2671,1056 Q2828,950 2896,751 Q3094,693 3204,542 Q3314,391 3314,186 Q3314,-97 3146,-254.5 Q2978,-412 2673,-412 Q2490,-412 2330,-352 L2387,-209 Q2509,-262 2678,-262 Q2905,-262 3022,-145.5 Q3139,-29 3139,188 Q3139,324 3087.5,422 Q3036,520 2934,579 Q2941,520 2941,458 Q2941,225 2827,100.5 Q2713,-24 2505,-24 Q2387,-24 2300,24.5 Q2213,73 2167,161 Q2121,249 2121,351 Q2121,555 2260.5,668 Q2400,781 2658,781 Q2683,781 2707,780 Q2649,897 2544.5,955.5 Q2440,1014 2288,1014 Q2176,1014 2086.5,968 Q1997,922 1957,836.5 Q1917,751 1917,590 L1917,0 L1740,0 L1740,575 Q1740,750 1703.5,836.5 Q1667,923 1583,973.5 Q1499,1024 1345,1024 Q1311,1024 1279,1021 Q1367,977 1411,910 Q1455,843 1455,754 Q1455,670 1412.5,615 Q1370,560 1287,524 Q1379,492 1428,428 Q1477,364 1477,279 Q1477,141 1376.5,58.5 Q1276,-24 1091,-24 Q873,-24 750,114 Q627,252 627,481 Q627,648 694,781.5 Q761,915 896,1014 Q837,1020 765,1020 Q528,1020 395,895 Q262,770 262,559 Q262,263 511,111 L410,-18 Q253,71 166.5,223.5 Q80,376 80,567 Q80,744 159.5,880.5 Q239,1017 390.5,1089.5 Q542,1162 751,1162 Q924,1162 1072,1111 M1091,974 Q950,910 874.5,773.5 Q799,637 799,489 Q799,309 876.5,211 Q954,113 1095,113 Q1305,113 1305,283 Q1305,362 1243,404 Q1181,446 1064,446 L1025,446 L1025,590 L1054,590 Q1283,590 1283,755 Q1283,834 1235,888.5 Q1187,943 1091,974 M2755,633 Q2714,640 2664,640 Q2480,640 2388.5,567.5 Q2297,495 2297,351 Q2297,248 2353,183 Q2409,118 2512,118 Q2638,118 2704.5,206.5 Q2771,295 2771,461 Q2771,553 2755,633"/> 
            <glyph glyph-name="ഇ" unicode="&#xD07;" horiz-adv-x="1939" d=" M1100,997 Q1158,1078 1251,1120 Q1344,1162 1456,1162 Q1600,1162 1709.5,1092.5 Q1819,1023 1879,897 Q1939,771 1939,627 Q1939,464 1894.5,345 Q1850,226 1760,146.5 Q1670,67 1541,33.5 Q1412,0 1197,0 L535,0 Q419,0 371,-14 Q323,-28 300.5,-56.5 Q278,-85 278,-126 Q278,-198 332,-231 Q386,-264 530,-264 L1895,-264 L1895,-412 L523,-412 Q303,-412 202,-338 Q101,-264 101,-140 Q101,-61 133.5,1 Q166,63 248.5,103.5 Q331,144 487,144 L1171,144 Q1385,144 1502.5,181.5 Q1620,219 1689.5,321 Q1759,423 1759,627 Q1759,724 1722,816 Q1685,908 1613,961 Q1541,1014 1440,1014 Q1349,1014 1294.5,970.5 Q1240,927 1218,857.5 Q1196,788 1196,642 L1196,249 L1019,249 L1019,632 Q1019,773 988,849 Q957,925 883,971.5 Q809,1018 673,1018 Q376,1018 265,791 Q362,852 470,852 Q613,852 694,769.5 Q775,687 775,553 Q775,413 683.5,324.5 Q592,236 431,236 Q270,236 175.5,342 Q81,448 81,637 Q81,783 154,904 Q227,1025 363,1093.5 Q499,1162 677,1162 Q826,1162 929,1122 Q1032,1082 1100,997 M235,621 Q240,376 429,376 Q512,376 558.5,424.5 Q605,473 605,552 Q605,630 561.5,673.5 Q518,717 438,717 Q326,717 235,621"/> 
            <glyph glyph-name="ഈ" unicode="&#xD08;" horiz-adv-x="3494" d=" M1100,997 Q1158,1078 1251,1120 Q1344,1162 1456,1162 Q1600,1162 1709.5,1092.5 Q1819,1023 1879,897 Q1939,771 1939,627 Q1939,464 1894.5,345 Q1850,226 1760,146.5 Q1670,67 1541,33.5 Q1412,0 1197,0 L535,0 Q419,0 371,-14 Q323,-28 300.5,-56.5 Q278,-85 278,-126 Q278,-198 332,-231 Q386,-264 530,-264 L1895,-264 L1895,-412 L523,-412 Q303,-412 202,-338 Q101,-264 101,-140 Q101,-61 133.5,1 Q166,63 248.5,103.5 Q331,144 487,144 L1171,144 Q1385,144 1502.5,181.5 Q1620,219 1689.5,321 Q1759,423 1759,627 Q1759,724 1722,816 Q1685,908 1613,961 Q1541,1014 1440,1014 Q1349,1014 1294.5,970.5 Q1240,927 1218,857.5 Q1196,788 1196,642 L1196,249 L1019,249 L1019,632 Q1019,773 988,849 Q957,925 883,971.5 Q809,1018 673,1018 Q376,1018 265,791 Q362,852 470,852 Q613,852 694,769.5 Q775,687 775,553 Q775,413 683.5,324.5 Q592,236 431,236 Q270,236 175.5,342 Q81,448 81,637 Q81,783 154,904 Q227,1025 363,1093.5 Q499,1162 677,1162 Q826,1162 929,1122 Q1032,1082 1100,997 M235,621 Q240,376 429,376 Q512,376 558.5,424.5 Q605,473 605,552 Q605,630 561.5,673.5 Q518,717 438,717 Q326,717 235,621 M2134,521 Q2114,577 2103,646.5 Q2092,716 2092,775 Q2092,947 2196,1054.5 Q2300,1162 2482,1162 Q2667,1162 2772,1006 Q2828,1088 2902,1125 Q2976,1162 3074,1162 Q3267,1162 3380.5,1016 Q3494,870 3494,624 Q3494,312 3348,144 Q3202,-24 2935,-24 Q2799,-24 2693.5,0 Q2588,24 2477,81 L2566,222 Q2650,171 2735,147.5 Q2820,124 2925,124 Q3118,124 3216,247 Q3314,370 3314,625 Q3314,812 3251,913 Q3188,1014 3075,1014 Q3008,1014 2966,991.5 Q2924,969 2900.5,931 Q2877,893 2870,840.5 Q2863,788 2863,697 L2863,528 L2689,528 L2689,682 Q2689,814 2670,877 Q2651,940 2602.5,977.5 Q2554,1015 2485,1015 Q2384,1015 2326.5,946 Q2269,877 2269,762 Q2269,651 2299,554"/> 
            <glyph glyph-name="ഉ" unicode="&#xD09;" horiz-adv-x="1337" d=" M1297,-264 L1297,-412 L523,-412 Q303,-412 202,-338 Q101,-264 101,-140 Q101,-61 133.5,1 Q166,63 248.5,103.5 Q331,144 487,144 L510,144 Q772,144 899,184 Q1026,224 1091.5,319.5 Q1157,415 1157,597 Q1157,781 1037,899.5 Q917,1018 695,1018 Q379,1018 265,792 Q361,852 470,852 Q613,852 694,769.5 Q775,687 775,553 Q775,413 683.5,324.5 Q592,236 431,236 Q270,236 175.5,342 Q81,448 81,637 Q81,787 158.5,907.5 Q236,1028 379,1095 Q522,1162 711,1162 Q908,1162 1048.5,1091 Q1189,1020 1263,888.5 Q1337,757 1337,596 Q1337,442 1291.5,329 Q1246,216 1150,140.5 Q1054,65 914.5,32.5 Q775,0 539,0 L535,0 Q419,0 371,-14 Q323,-28 300.5,-56.5 Q278,-85 278,-126 Q278,-198 332,-231 Q386,-264 530,-264 M235,621 Q240,376 429,376 Q512,376 558.5,424.5 Q605,473 605,552 Q605,630 561.5,673.5 Q518,717 438,717 Q326,717 235,621"/> 
            <glyph glyph-name="ഊ" unicode="&#xD0A;" horiz-adv-x="2892" d=" M1297,-264 L1297,-412 L523,-412 Q303,-412 202,-338 Q101,-264 101,-140 Q101,-61 133.5,1 Q166,63 248.5,103.5 Q331,144 487,144 L510,144 Q772,144 899,184 Q1026,224 1091.5,319.5 Q1157,415 1157,597 Q1157,781 1037,899.5 Q917,1018 695,1018 Q379,1018 265,792 Q361,852 470,852 Q613,852 694,769.5 Q775,687 775,553 Q775,413 683.5,324.5 Q592,236 431,236 Q270,236 175.5,342 Q81,448 81,637 Q81,787 158.5,907.5 Q236,1028 379,1095 Q522,1162 711,1162 Q908,1162 1048.5,1091 Q1189,1020 1263,888.5 Q1337,757 1337,596 Q1337,442 1291.5,329 Q1246,216 1150,140.5 Q1054,65 914.5,32.5 Q775,0 539,0 L535,0 Q419,0 371,-14 Q323,-28 300.5,-56.5 Q278,-85 278,-126 Q278,-198 332,-231 Q386,-264 530,-264 M235,621 Q240,376 429,376 Q512,376 558.5,424.5 Q605,473 605,552 Q605,630 561.5,673.5 Q518,717 438,717 Q326,717 235,621 M1532,521 Q1512,577 1501,646.5 Q1490,716 1490,775 Q1490,947 1594,1054.5 Q1698,1162 1880,1162 Q2065,1162 2170,1006 Q2226,1088 2300,1125 Q2374,1162 2472,1162 Q2665,1162 2778.5,1016 Q2892,870 2892,624 Q2892,312 2746,144 Q2600,-24 2333,-24 Q2197,-24 2091.5,0 Q1986,24 1875,81 L1964,222 Q2048,171 2133,147.5 Q2218,124 2323,124 Q2516,124 2614,247 Q2712,370 2712,625 Q2712,812 2649,913 Q2586,1014 2473,1014 Q2406,1014 2364,991.5 Q2322,969 2298.5,931 Q2275,893 2268,840.5 Q2261,788 2261,697 L2261,528 L2087,528 L2087,682 Q2087,814 2068,877 Q2049,940 2000.5,977.5 Q1952,1015 1883,1015 Q1782,1015 1724.5,946 Q1667,877 1667,762 Q1667,651 1697,554"/> 
            <glyph glyph-name="ഋ" unicode="&#xD0B;" horiz-adv-x="1709" d=" M403,229 Q258,285 166.5,419.5 Q75,554 75,735 Q75,932 178,1047 Q281,1162 459,1162 Q622,1162 715.5,1067.5 Q809,973 809,825 Q809,687 723,600 Q637,513 487,513 Q348,513 248,584 Q291,489 364.5,427.5 Q438,366 550,343 Q662,320 860,320 L910,320 Q1105,320 1222.5,341 Q1340,362 1416,420.5 Q1492,479 1536,584 Q1433,513 1297,513 Q1144,513 1059.5,601.5 Q975,690 975,830 Q975,976 1073,1069 Q1171,1162 1340,1162 Q1510,1162 1609.5,1048.5 Q1709,935 1709,742 Q1709,547 1613.5,413.5 Q1518,280 1374,232 Q1507,191 1574,118.5 Q1641,46 1641,-57 Q1641,-253 1458,-344.5 Q1275,-436 900,-436 Q503,-436 323,-345 Q143,-254 143,-51 Q143,47 208,117 Q273,187 403,229 M1550,748 Q1544,885 1489,952.5 Q1434,1020 1335,1020 Q1243,1020 1191.5,968.5 Q1140,917 1140,831 Q1140,750 1187.5,704 Q1235,658 1323,658 Q1387,658 1442,677.5 Q1497,697 1550,748 M234,755 Q285,700 340,679 Q395,658 461,658 Q549,658 596.5,704 Q644,750 644,831 Q644,915 594,967.5 Q544,1020 458,1020 Q355,1020 296.5,952.5 Q238,885 234,755 M894,172 L878,172 Q585,172 453.5,116.5 Q322,61 322,-55 Q322,-182 456.5,-235 Q591,-288 898,-288 Q1187,-288 1324.5,-234 Q1462,-180 1462,-58 Q1462,60 1334.5,116 Q1207,172 894,172"/> 
            <glyph glyph-name="ഌ" unicode="&#xD0C;" horiz-adv-x="2308" d=" M1248,0 L1071,0 L1071,627 Q1071,792 1031,867.5 Q991,943 917,979 Q843,1015 731,1015 Q546,1015 418.5,902 Q291,789 259,594 Q377,672 507,672 Q659,672 750,582.5 Q841,493 841,337 Q841,171 746.5,73.5 Q652,-24 491,-24 Q372,-24 278.5,36.5 Q185,97 135,214.5 Q85,332 85,494 Q85,695 166,846.5 Q247,998 396.5,1080 Q546,1162 734,1162 Q879,1162 982.5,1117.5 Q1086,1073 1171,970 Q1259,1071 1369,1116.5 Q1479,1162 1626,1162 Q1837,1162 1991,1082 Q2145,1002 2226.5,849.5 Q2308,697 2308,495 Q2308,243 2193.5,109.5 Q2079,-24 1874,-24 Q1692,-24 1584,96 Q1476,216 1476,402 Q1476,595 1581,711 Q1686,827 1861,827 Q1999,827 2106,732 Q2053,865 1928.5,939.5 Q1804,1014 1627,1014 Q1504,1014 1420.5,971 Q1337,928 1292,844.5 Q1247,761 1247,591 M2136,559 Q2040,684 1896,684 Q1776,684 1712.5,611.5 Q1649,539 1649,406 Q1649,266 1706.5,193 Q1764,120 1874,120 Q2009,120 2073.5,216.5 Q2138,313 2138,505 Q2138,529 2136,559 M252,436 Q257,285 321,202 Q385,119 495,119 Q574,119 622,172 Q670,225 670,322 Q670,419 618,474 Q566,529 478,529 Q362,529 252,436"/> 
            <glyph glyph-name="എ" unicode="&#xD0E;" horiz-adv-x="2518" d=" M2206,-466 L2077,-364 Q2207,-223 2272.5,-38.5 Q2338,146 2338,365 Q2338,669 2211,841.5 Q2084,1014 1843,1014 Q1607,1014 1479,822 Q1351,630 1351,281 Q1351,192 1355,144 L1736,144 L1736,832 L1914,832 L1914,-115 Q1914,-250 1882,-321 Q1850,-392 1787.5,-429 Q1725,-466 1631,-466 Q1465,-466 1352,-345.5 Q1239,-225 1196,0 L672,0 L613,107 Q702,190 702,323 Q702,436 641.5,500 Q581,564 470,564 Q366,564 302,498.5 Q238,433 238,335 Q238,185 358,105 L265,-14 Q166,54 115.5,144 Q65,234 65,339 Q65,502 177,605 Q289,708 470,708 Q590,708 682,662.5 Q774,617 824,534 Q874,451 874,354 Q874,223 811,144 L1176,144 Q1170,215 1170,295 Q1170,562 1252,759 Q1334,956 1487,1059 Q1640,1162 1850,1162 Q2168,1162 2343,954 Q2518,746 2518,361 Q2518,133 2438.5,-86.5 Q2359,-306 2206,-466 M1370,0 Q1392,-157 1460.5,-241 Q1529,-325 1625,-325 Q1666,-325 1690,-307.5 Q1714,-290 1725,-258 Q1736,-226 1736,-153 L1736,0"/> 
            <glyph glyph-name="ഏ" unicode="&#xD0F;" horiz-adv-x="2538" d=" M1355,144 L1736,144 L1736,832 L1914,832 L1914,-115 Q1914,-250 1882,-321 Q1850,-392 1787.5,-429 Q1725,-466 1631,-466 Q1465,-466 1352,-345.5 Q1239,-225 1196,0 L672,0 L613,107 Q702,190 702,323 Q702,436 641.5,500 Q581,564 470,564 Q366,564 302,498.5 Q238,433 238,335 Q238,185 358,105 L265,-14 Q166,54 115.5,144 Q65,234 65,339 Q65,502 177,605 Q289,708 470,708 Q590,708 682,662.5 Q774,617 824,534 Q874,451 874,354 Q874,223 811,144 L1176,144 Q1170,215 1170,295 Q1170,701 1370.5,931.5 Q1571,1162 1936,1162 Q2121,1162 2251.5,1101.5 Q2382,1041 2449,930.5 Q2516,820 2516,680 Q2516,555 2454.5,456.5 Q2393,358 2276,296 Q2538,197 2538,-73 Q2538,-261 2431.5,-363.5 Q2325,-466 2133,-466 Q2095,-466 2045.5,-460.5 Q1996,-455 1977,-450 L2011,-309 Q2059,-322 2123,-322 Q2237,-322 2297.5,-256.5 Q2358,-191 2358,-69 Q2358,61 2277.5,137.5 Q2197,214 2052,214 L2052,354 Q2200,386 2268,465 Q2336,544 2336,680 Q2336,831 2231.5,922.5 Q2127,1014 1933,1014 Q1646,1014 1498.5,826.5 Q1351,639 1351,281 Q1351,192 1355,144 M1370,0 Q1392,-157 1460.5,-241 Q1529,-325 1625,-325 Q1666,-325 1690,-307.5 Q1714,-290 1725,-258 Q1736,-226 1736,-153 L1736,0"/> 
            <glyph glyph-name="ഐ" unicode="&#xD10;" horiz-adv-x="3983" d=" M1206,111 Q1326,184 1390.5,298 Q1455,412 1455,554 Q1455,766 1334.5,890 Q1214,1014 1009,1014 Q825,1014 688.5,901 Q552,788 512,598 Q627,672 754,672 Q906,672 997,582.5 Q1088,493 1088,337 Q1088,171 993.5,73.5 Q899,-24 738,-24 Q620,-24 526,36.5 Q432,97 382,210.5 Q332,324 332,476 Q332,679 419,835 Q506,991 664,1076.5 Q822,1162 1018,1162 Q1310,1162 1473.5,1002.5 Q1637,843 1637,575 Q1637,383 1554.5,234.5 Q1472,86 1307,-18 M499,437 Q504,283 568,201 Q632,119 743,119 Q822,119 869.5,173.5 Q917,228 917,323 Q917,419 864.5,474 Q812,529 725,529 Q608,529 499,437 M3671,-466 L3542,-364 Q3672,-223 3737.5,-38.5 Q3803,146 3803,365 Q3803,669 3676,841.5 Q3549,1014 3308,1014 Q3072,1014 2944,822 Q2816,630 2816,281 Q2816,192 2820,144 L3201,144 L3201,832 L3379,832 L3379,-115 Q3379,-250 3347,-321 Q3315,-392 3252.5,-429 Q3190,-466 3096,-466 Q2930,-466 2817,-345.5 Q2704,-225 2661,0 L2137,0 L2078,107 Q2167,190 2167,323 Q2167,436 2106.5,500 Q2046,564 1935,564 Q1831,564 1767,498.5 Q1703,433 1703,335 Q1703,185 1823,105 L1730,-14 Q1631,54 1580.5,144 Q1530,234 1530,339 Q1530,502 1642,605 Q1754,708 1935,708 Q2055,708 2147,662.5 Q2239,617 2289,534 Q2339,451 2339,354 Q2339,223 2276,144 L2641,144 Q2635,215 2635,295 Q2635,562 2717,759 Q2799,956 2952,1059 Q3105,1162 3315,1162 Q3633,1162 3808,954 Q3983,746 3983,361 Q3983,133 3903.5,-86.5 Q3824,-306 3671,-466 M2835,0 Q2857,-157 2925.5,-241 Q2994,-325 3090,-325 Q3131,-325 3155,-307.5 Q3179,-290 3190,-258 Q3201,-226 3201,-153 L3201,0"/> 
            <glyph glyph-name="ഒ" unicode="&#xD12;" horiz-adv-x="1450" d=" M260,598 Q375,672 502,672 Q654,672 745,582.5 Q836,493 836,337 Q836,171 741.5,73.5 Q647,-24 486,-24 Q369,-24 274.5,37 Q180,98 130,213.5 Q80,329 80,484 Q80,686 176.5,841 Q273,996 454,1079 Q635,1162 877,1162 Q1150,1162 1288.5,1074 Q1427,986 1427,824 Q1427,646 1234,565 Q1339,528 1394.5,456.5 Q1450,385 1450,291 Q1450,141 1356,58.5 Q1262,-24 1091,-24 Q1000,-24 902,-1 L939,140 Q1012,120 1083,120 Q1181,120 1227,162.5 Q1273,205 1273,294 Q1273,358 1241,402 Q1209,446 1157.5,468 Q1106,490 1000,490 L966,490 L966,634 L1001,634 Q1123,634 1186.5,681.5 Q1250,729 1250,816 Q1250,913 1157,963.5 Q1064,1014 881,1014 Q630,1014 467,904.5 Q304,795 260,598 M247,437 Q252,283 316.5,201 Q381,119 490,119 Q569,119 617,172 Q665,225 665,322 Q665,419 612.5,474 Q560,529 473,529 Q356,529 247,437"/> 
            <glyph glyph-name="ഓ" unicode="&#xD13;" horiz-adv-x="2472" d=" M260,598 Q375,672 502,672 Q654,672 745,582.5 Q836,493 836,337 Q836,171 741.5,73.5 Q647,-24 486,-24 Q369,-24 274.5,37 Q180,98 130,213.5 Q80,329 80,484 Q80,686 176.5,841 Q273,996 454,1079 Q635,1162 877,1162 Q1150,1162 1288.5,1074 Q1427,986 1427,824 Q1427,646 1234,565 Q1339,528 1394.5,456.5 Q1450,385 1450,291 Q1450,141 1356,58.5 Q1262,-24 1091,-24 Q1000,-24 902,-1 L939,140 Q1012,120 1083,120 Q1181,120 1227,162.5 Q1273,205 1273,294 Q1273,358 1241,402 Q1209,446 1157.5,468 Q1106,490 1000,490 L966,490 L966,634 L1001,634 Q1123,634 1186.5,681.5 Q1250,729 1250,816 Q1250,913 1157,963.5 Q1064,1014 881,1014 Q630,1014 467,904.5 Q304,795 260,598 M247,437 Q252,283 316.5,201 Q381,119 490,119 Q569,119 617,172 Q665,225 665,322 Q665,419 612.5,474 Q560,529 473,529 Q356,529 247,437 M1558,347 L1736,380 Q1801,120 1996,120 Q2142,120 2217,235 Q2292,350 2292,569 Q2292,785 2218.5,901.5 Q2145,1018 2006,1018 Q1909,1018 1841,948 Q1773,878 1744,758 L1567,792 Q1620,974 1735,1068 Q1850,1162 2017,1162 Q2238,1162 2355,1004.5 Q2472,847 2472,571 Q2472,282 2351,129 Q2230,-24 1997,-24 Q1828,-24 1713.5,74.5 Q1599,173 1558,347"/> 
            <glyph glyph-name="ഔ" unicode="&#xD14;" horiz-adv-x="2993" d=" M260,598 Q375,672 502,672 Q654,672 745,582.5 Q836,493 836,337 Q836,171 741.5,73.5 Q647,-24 486,-24 Q369,-24 274.5,37 Q180,98 130,213.5 Q80,329 80,484 Q80,686 176.5,841 Q273,996 454,1079 Q635,1162 877,1162 Q1150,1162 1288.5,1074 Q1427,986 1427,824 Q1427,646 1234,565 Q1339,528 1394.5,456.5 Q1450,385 1450,291 Q1450,141 1356,58.5 Q1262,-24 1091,-24 Q1000,-24 902,-1 L939,140 Q1012,120 1083,120 Q1181,120 1227,162.5 Q1273,205 1273,294 Q1273,358 1241,402 Q1209,446 1157.5,468 Q1106,490 1000,490 L966,490 L966,634 L1001,634 Q1123,634 1186.5,681.5 Q1250,729 1250,816 Q1250,913 1157,963.5 Q1064,1014 881,1014 Q630,1014 467,904.5 Q304,795 260,598 M247,437 Q252,283 316.5,201 Q381,119 490,119 Q569,119 617,172 Q665,225 665,322 Q665,419 612.5,474 Q560,529 473,529 Q356,529 247,437 M1633,521 Q1613,577 1602,646.5 Q1591,716 1591,775 Q1591,947 1695,1054.5 Q1799,1162 1981,1162 Q2166,1162 2271,1006 Q2327,1088 2401,1125 Q2475,1162 2573,1162 Q2766,1162 2879.5,1016 Q2993,870 2993,624 Q2993,312 2847,144 Q2701,-24 2434,-24 Q2298,-24 2192.5,0 Q2087,24 1976,81 L2065,222 Q2149,171 2234,147.5 Q2319,124 2424,124 Q2617,124 2715,247 Q2813,370 2813,625 Q2813,812 2750,913 Q2687,1014 2574,1014 Q2507,1014 2465,991.5 Q2423,969 2399.5,931 Q2376,893 2369,840.5 Q2362,788 2362,697 L2362,528 L2188,528 L2188,682 Q2188,814 2169,877 Q2150,940 2101.5,977.5 Q2053,1015 1984,1015 Q1883,1015 1825.5,946 Q1768,877 1768,762 Q1768,651 1798,554"/> 
            <glyph glyph-name="ക" unicode="&#xD15;" horiz-adv-x="2060" d=" M775,74 Q694,23 615,-0.5 Q536,-24 443,-24 Q262,-24 163.5,64 Q65,152 65,311 Q65,390 97,457 Q129,524 191.5,569.5 Q254,615 341.5,640.5 Q429,666 594,671 Q618,904 745.5,1033 Q873,1162 1071,1162 Q1274,1162 1397.5,1035.5 Q1521,909 1546,671 Q1815,666 1937.5,572 Q2060,478 2060,311 Q2060,153 1966.5,64.5 Q1873,-24 1703,-24 Q1578,-24 1497,1 L1537,139 Q1609,120 1677,120 Q1883,120 1883,309 Q1883,413 1803,467 Q1723,521 1549,527 Q1537,260 1411.5,118 Q1286,-24 1073,-24 Q894,-24 775,74 M771,672 L1369,672 Q1352,845 1277.5,931.5 Q1203,1018 1071,1018 Q936,1018 861,931.5 Q786,845 771,672 M1372,528 L767,528 Q773,324 848,222 Q923,120 1068,120 Q1213,120 1289,222 Q1365,324 1372,528 M678,188 Q638,255 616,340 Q594,425 590,527 Q408,525 325,472.5 Q242,420 242,318 Q242,222 295.5,171 Q349,120 449,120 Q569,120 678,188"/> 
            <glyph glyph-name="ഖ" unicode="&#xD16;" horiz-adv-x="1902" d=" M975,111 Q1105,225 1154,328 Q1203,431 1203,554 Q1203,766 1082.5,890 Q962,1014 757,1014 Q574,1014 436.5,901.5 Q299,789 258,597 Q374,672 502,672 Q654,672 745,582.5 Q836,493 836,337 Q836,171 741.5,73.5 Q647,-24 486,-24 Q368,-24 274,36.5 Q180,97 130,210.5 Q80,324 80,476 Q80,677 167,833.5 Q254,990 412.5,1076 Q571,1162 766,1162 Q1058,1162 1221.5,1002.5 Q1385,843 1385,576 Q1385,451 1348.5,348.5 Q1312,246 1225,144 L1723,144 L1723,1134 L1902,1134 L1902,0 L1048,0 M247,437 Q251,285 315.5,202 Q380,119 490,119 Q570,119 617.5,173.5 Q665,228 665,323 Q665,419 612.5,474 Q560,529 473,529 Q355,529 247,437"/> 
            <glyph glyph-name="ഗ" unicode="&#xD17;" horiz-adv-x="1757" d=" M828,641 Q828,835 872,936 Q916,1037 1011,1099.5 Q1106,1162 1273,1162 Q1492,1162 1624.5,1008 Q1757,854 1757,600 Q1757,414 1685.5,268 Q1614,122 1440,-17 L1330,109 Q1577,286 1577,594 Q1577,783 1493.5,898.5 Q1410,1014 1270,1014 Q1164,1014 1103,959 Q1042,904 1025,807.5 Q1008,711 1008,516 L1008,498 Q1008,287 951.5,183 Q895,79 801.5,28 Q708,-23 569,-23 Q342,-23 211,126.5 Q80,276 80,538 Q80,735 156.5,884 Q233,1033 397,1162 L507,1035 Q260,858 260,543 Q260,353 342.5,239 Q425,125 561,125 Q676,125 734,175.5 Q792,226 810,318.5 Q828,411 828,614"/> 
            <glyph glyph-name="ഘ" unicode="&#xD18;" horiz-adv-x="2569" d=" M1262,454 L1262,144 L2392,144 L2392,1134 L2569,1134 L2569,0 L1085,0 L1085,454 L672,454 L613,561 Q702,644 702,777 Q702,890 641.5,954 Q581,1018 470,1018 Q366,1018 302,952.5 Q238,887 238,789 Q238,639 358,559 L265,440 Q166,508 115.5,598 Q65,688 65,793 Q65,956 177,1059 Q289,1162 470,1162 Q590,1162 682,1116.5 Q774,1071 824,988 Q874,905 874,808 Q874,677 811,598 L1085,598 L1085,641 Q1085,834 1144,942.5 Q1203,1051 1312.5,1106.5 Q1422,1162 1579,1162 Q1825,1162 1948,1036 Q2071,910 2071,659 L2071,454 M1894,655 Q1894,847 1819.5,932.5 Q1745,1018 1577,1018 Q1411,1018 1336.5,932 Q1262,846 1262,658 L1262,598 L1894,598"/> 
            <glyph glyph-name="ങ" unicode="&#xD19;" horiz-adv-x="2101" d=" M1071,627 Q1071,792 1031,867.5 Q991,943 917,979 Q843,1015 731,1015 Q546,1015 418.5,902 Q291,789 259,594 Q377,672 507,672 Q659,672 750,582.5 Q841,493 841,337 Q841,171 746.5,73.5 Q652,-24 491,-24 Q372,-24 278.5,36.5 Q185,97 135,214.5 Q85,332 85,494 Q85,695 166,846.5 Q247,998 396.5,1080 Q546,1162 734,1162 Q884,1162 991,1113.5 Q1098,1065 1188,950 Q1263,1052 1384,1107 Q1505,1162 1645,1162 Q1845,1162 1962,1074 Q2079,986 2079,841 Q2079,743 2031.5,676.5 Q1984,610 1884,567 Q1990,530 2045.5,458 Q2101,386 2101,292 Q2101,143 2004.5,60 Q1908,-23 1735,-23 Q1637,-23 1533,0 L1570,141 Q1651,121 1715,121 Q1822,121 1873,164 Q1924,207 1924,295 Q1924,354 1892,398 Q1860,442 1802.5,466 Q1745,490 1622,490 L1568,490 L1568,634 L1621,634 Q1902,634 1902,826 Q1902,916 1837.5,965 Q1773,1014 1649,1014 Q1513,1014 1424,959.5 Q1335,905 1291.5,805 Q1248,705 1248,497 L1248,0 L1071,0 M252,436 Q257,285 321,202 Q385,119 495,119 Q574,119 622,172 Q670,225 670,322 Q670,419 618,474 Q566,529 478,529 Q362,529 252,436"/> 
            <glyph glyph-name="ച" unicode="&#xD1A;" horiz-adv-x="1706" d=" M261,276 Q250,333 250,391 Q250,536 358,624 Q466,712 644,712 Q826,712 924.5,617.5 Q1023,523 1023,375 Q1023,239 942,144 L1527,144 L1527,1134 L1706,1134 L1706,0 L35,0 L35,144 L757,144 Q851,225 851,356 Q851,454 795,511 Q739,568 639,568 Q538,568 482,515 Q426,462 426,367 Q426,325 431,299"/> 
            <glyph glyph-name="ഛ" unicode="&#xD1B;" horiz-adv-x="2607" d=" M2405,732 Q2355,865 2228.5,939.5 Q2102,1014 1926,1014 Q1700,1014 1571,893 Q1442,772 1442,559 Q1442,434 1493,328 Q1544,222 1670,111 L1597,0 L35,0 L35,144 L757,144 Q851,225 851,356 Q851,454 795,511 Q739,568 639,568 Q538,568 482,515 Q426,462 426,367 Q426,325 431,299 L261,276 Q250,333 250,391 Q250,536 358,624 Q466,712 644,712 Q826,712 924.5,617.5 Q1023,523 1023,375 Q1023,239 942,144 L1427,144 Q1343,241 1301.5,349 Q1260,457 1260,567 Q1260,736 1337.5,873.5 Q1415,1011 1566,1086.5 Q1717,1162 1925,1162 Q2134,1162 2287.5,1083.5 Q2441,1005 2524,852.5 Q2607,700 2607,495 Q2607,243 2492.5,109.5 Q2378,-24 2173,-24 Q1991,-24 1883,96 Q1775,216 1775,402 Q1775,595 1880,711 Q1985,827 2160,827 Q2298,827 2405,732 M2434,561 Q2387,621 2325.5,652.5 Q2264,684 2195,684 Q2075,684 2011.5,611.5 Q1948,539 1948,406 Q1948,266 2005.5,193 Q2063,120 2173,120 Q2307,120 2372,216.5 Q2437,313 2437,508 Q2437,524 2434,561"/> 
            <glyph glyph-name="ജ" unicode="&#xD1C;" horiz-adv-x="1840" d=" M1035,997 Q1102,1079 1194,1120.5 Q1286,1162 1404,1162 Q1537,1162 1636,1111 Q1735,1060 1787.5,968.5 Q1840,877 1840,772 Q1840,653 1793,576 Q1746,499 1645,446 Q1715,418 1750,365.5 Q1785,313 1785,236 Q1785,112 1706.5,44 Q1628,-24 1485,-24 Q1341,-24 1260.5,45 Q1180,114 1177,239 Q1058,155 831.5,65.5 Q605,-24 405,-24 Q249,-24 162,41 Q75,106 75,231 Q75,287 101.5,340.5 Q128,394 206.5,435.5 Q285,477 445,477 L1170,477 Q1353,477 1451,500.5 Q1549,524 1606.5,586.5 Q1664,649 1664,765 Q1664,872 1591.5,945.5 Q1519,1019 1384,1019 Q1284,1019 1223.5,978.5 Q1163,938 1143,872 Q1123,806 1123,683 L1123,531 L954,531 L954,661 Q954,761 936.5,825 Q919,889 874.5,936 Q830,983 766.5,1004 Q703,1025 597,1025 Q427,1025 332,969 Q383,984 433,984 Q560,984 629,918.5 Q698,853 698,749 Q698,636 617.5,563.5 Q537,491 398,491 Q252,491 169.5,568 Q87,645 87,781 Q87,886 149.5,973 Q212,1060 334,1111 Q456,1162 621,1162 Q761,1162 858,1123 Q955,1084 1035,997 M243,847 Q230,812 230,780 Q230,698 272,656 Q314,614 395,614 Q467,614 504.5,651 Q542,688 542,752 Q542,814 504,848.5 Q466,883 388,883 Q314,883 243,847 M1327,323 Q1319,292 1319,254 Q1319,180 1361.5,141.5 Q1404,103 1482,103 Q1554,103 1591.5,137.5 Q1629,172 1629,235 Q1629,301 1588,335.5 Q1547,370 1477,370 Q1397,370 1327,323 M1159,355 Q1050,340 898,340 L494,340 Q382,340 336.5,330 Q291,320 267.5,295 Q244,270 244,233 Q244,116 405,116 Q484,116 573.5,134.5 Q663,153 740,182.5 Q817,212 1029,304 Q1093,332 1159,355"/> 
            <glyph glyph-name="ഝ" unicode="&#xD1D;" horiz-adv-x="3309" d=" M2368,1134 L2545,1134 L2545,541 Q2545,428 2553.5,361.5 Q2562,295 2592,241 Q2622,187 2676,155 Q2730,123 2807,123 Q2946,123 3037.5,242.5 Q3129,362 3129,541 Q3129,858 2884,1032 L3006,1162 Q3168,1032 3238.5,882.5 Q3309,733 3309,541 Q3309,378 3245.5,248 Q3182,118 3066,47 Q2950,-24 2799,-24 Q2687,-24 2604,20 Q2521,64 2455,163 Q2342,-24 2105,-24 Q2018,-24 1944,5 Q1870,34 1812,103.5 Q1754,173 1733.5,264 Q1713,355 1713,508 L1713,539 Q1713,805 1612.5,913 Q1512,1021 1322,1021 Q1236,1021 1170,1003 Q1305,907 1380,762 Q1455,617 1455,448 Q1455,224 1345.5,100 Q1236,-24 1039,-24 Q843,-24 732,101 Q621,226 621,448 Q621,621 692.5,762 Q764,903 900,1001 Q830,1021 736,1021 Q593,1021 485.5,965 Q378,909 320,802.5 Q262,696 262,559 Q262,263 511,111 L410,-18 Q253,71 166.5,223.5 Q80,376 80,567 Q80,743 160,879.5 Q240,1016 384,1089 Q528,1162 718,1162 Q891,1162 1033,1095 Q1180,1162 1335,1162 Q1546,1162 1667,1086 Q1788,1010 1839,893.5 Q1890,777 1890,584 L1890,542 Q1890,368 1911,288.5 Q1932,209 1986,166 Q2040,123 2129,123 Q2212,123 2268.5,167 Q2325,211 2346.5,288 Q2368,365 2368,505 M1035,935 Q924,859 862.5,733.5 Q801,608 801,453 Q801,287 861.5,203.5 Q922,120 1039,120 Q1275,120 1275,453 Q1275,599 1210,729 Q1145,859 1035,935"/> 
            <glyph glyph-name="ഞ" unicode="&#xD1E;" horiz-adv-x="2881" d=" M1071,0 L1071,627 Q1071,792 1031,867.5 Q991,943 917,979 Q843,1015 731,1015 Q546,1015 418.5,902 Q291,789 259,594 Q377,672 507,672 Q659,672 750,582.5 Q841,493 841,337 Q841,171 746.5,73.5 Q652,-24 491,-24 Q372,-24 278.5,36.5 Q185,97 135,214.5 Q85,332 85,494 Q85,695 166,846.5 Q247,998 396.5,1080 Q546,1162 734,1162 Q882,1162 986.5,1115.5 Q1091,1069 1177,963 Q1249,1062 1359.5,1112 Q1470,1162 1619,1162 Q1799,1162 1936,1096 Q2082,1162 2273,1162 Q2459,1162 2596.5,1089.5 Q2734,1017 2807.5,882.5 Q2881,748 2881,575 Q2881,191 2551,-18 L2450,111 Q2573,186 2636,298.5 Q2699,411 2699,554 Q2699,689 2645,797 Q2591,905 2490,963 Q2389,1021 2253,1021 Q2145,1021 2070,1001 Q2199,903 2269.5,759.5 Q2340,616 2340,448 Q2340,225 2230.5,100.5 Q2121,-24 1923,-24 Q1726,-24 1615.5,101 Q1505,226 1505,448 Q1505,619 1580.5,761 Q1656,903 1799,1002 Q1734,1021 1643,1021 Q1486,1021 1404.5,966.5 Q1323,912 1285.5,825 Q1248,738 1248,548 L1248,0 M1933,937 Q1818,864 1751.5,736 Q1685,608 1685,453 Q1685,287 1745.5,203.5 Q1806,120 1923,120 Q2160,120 2160,453 Q2160,604 2100.5,733.5 Q2041,863 1933,937 M252,436 Q257,285 321,202 Q385,119 495,119 Q574,119 622,172 Q670,225 670,322 Q670,419 618,474 Q566,529 478,529 Q362,529 252,436"/> 
            <glyph glyph-name="ട" unicode="&#xD1F;" horiz-adv-x="1097" d=" M41,121 L136,257 Q346,124 600,124 Q749,124 826,174 Q903,224 903,314 Q903,410 837,455 Q771,500 573,500 L553,500 Q314,500 192.5,576.5 Q71,653 71,823 Q71,981 196,1071.5 Q321,1162 550,1162 Q853,1162 1097,1023 L1002,886 Q801,1014 548,1014 Q404,1014 327,963 Q250,912 250,825 Q250,731 320.5,690.5 Q391,650 613,650 L628,650 Q870,650 976,566 Q1082,482 1082,318 Q1082,158 955,67 Q828,-24 591,-24 Q437,-24 308,9.5 Q179,43 41,121"/> 
            <glyph glyph-name="ഠ" unicode="&#xD20;" horiz-adv-x="1262" d=" M1262,566 Q1262,297 1102,136.5 Q942,-24 670,-24 Q489,-24 356,50 Q223,124 151.5,261 Q80,398 80,572 Q80,745 151,880 Q222,1015 355.5,1088.5 Q489,1162 667,1162 Q942,1162 1102,1002 Q1262,842 1262,566 M1080,569 Q1080,771 971.5,892.5 Q863,1014 672,1014 Q481,1014 371.5,895 Q262,776 262,569 Q262,364 370,244 Q478,124 670,124 Q863,124 971.5,244 Q1080,364 1080,569"/> 
            <glyph glyph-name="ഡ" unicode="&#xD21;" horiz-adv-x="2425" d=" M827,586 Q827,747 807.5,831.5 Q788,916 727.5,965 Q667,1014 567,1014 Q431,1014 345.5,899 Q260,784 260,594 Q260,287 505,112 L388,-17 Q223,114 151.5,260.5 Q80,407 80,600 Q80,856 217.5,1009 Q355,1162 581,1162 Q686,1162 766.5,1130.5 Q847,1099 904,1033 Q961,967 983.5,872 Q1006,777 1006,606 L1006,552 Q1006,366 1027,287.5 Q1048,209 1102,166 Q1156,123 1245,123 Q1328,123 1384.5,167 Q1441,211 1462.5,288 Q1484,365 1484,505 L1484,1134 L1661,1134 L1661,541 Q1661,428 1669.5,361.5 Q1678,295 1708,241 Q1738,187 1792,155 Q1846,123 1923,123 Q2062,123 2153.5,242.5 Q2245,362 2245,541 Q2245,858 2000,1032 L2122,1162 Q2284,1032 2354.5,882.5 Q2425,733 2425,541 Q2425,378 2361.5,248 Q2298,118 2182,47 Q2066,-24 1915,-24 Q1803,-24 1720,20 Q1637,64 1571,163 Q1458,-24 1221,-24 Q1083,-24 993,42.5 Q903,109 865,212 Q827,315 827,518"/> 
            <glyph glyph-name="ഢ" unicode="&#xD22;" horiz-adv-x="2647" d=" M1661,511 Q1661,350 1699,273.5 Q1737,197 1811.5,160 Q1886,123 2001,123 Q2183,123 2309.5,233.5 Q2436,344 2471,541 Q2362,466 2233,466 Q2073,466 1982,557 Q1891,648 1891,808 Q1891,969 1987.5,1064.5 Q2084,1160 2249,1160 Q2428,1160 2537.5,1030.5 Q2647,901 2647,662 Q2647,454 2567,298.5 Q2487,143 2339,59.5 Q2191,-24 2004,-24 Q1865,-24 1762.5,16 Q1660,56 1569,159 Q1455,-24 1221,-24 Q1083,-24 993,42.5 Q903,109 865,212 Q827,315 827,518 L827,586 Q827,747 807.5,831.5 Q788,916 727.5,965 Q667,1014 567,1014 Q431,1014 345.5,899 Q260,784 260,594 Q260,287 505,112 L388,-17 Q223,114 151.5,260.5 Q80,407 80,600 Q80,856 217.5,1009 Q355,1162 581,1162 Q686,1162 766.5,1130.5 Q847,1099 904,1033 Q961,967 983.5,872 Q1006,777 1006,606 L1006,552 Q1006,366 1027,287.5 Q1048,209 1102,166 Q1156,123 1245,123 Q1328,123 1384.5,167 Q1441,211 1462.5,288 Q1484,365 1484,505 L1484,1134 L1661,1134 M2481,701 Q2474,856 2409.5,937.5 Q2345,1019 2237,1019 Q2158,1019 2110,966 Q2062,913 2062,816 Q2062,716 2112,662.5 Q2162,609 2254,609 Q2374,609 2481,701"/> 
            <glyph glyph-name="ണ" unicode="&#xD23;" horiz-adv-x="2722" d=" M1162,982 Q1227,1072 1315.5,1117 Q1404,1162 1515,1162 Q1636,1162 1724,1116 Q1812,1070 1867,978 Q1934,1072 2018.5,1117 Q2103,1162 2227,1162 Q2375,1162 2487.5,1090.5 Q2600,1019 2661,889 Q2722,759 2722,598 Q2722,406 2645.5,258.5 Q2569,111 2404,-18 L2295,109 Q2420,197 2481,318 Q2542,439 2542,598 Q2542,780 2453,897.5 Q2364,1015 2225,1015 Q2145,1015 2093,987.5 Q2041,960 2009,908 Q1977,856 1967.5,787.5 Q1958,719 1958,597 L1958,0 L1781,0 L1781,652 Q1781,801 1753,872 Q1725,943 1666,979 Q1607,1015 1514,1015 Q1428,1015 1368.5,977.5 Q1309,940 1278.5,867.5 Q1248,795 1248,633 L1248,0 L1071,0 L1071,627 Q1071,792 1031,867.5 Q991,943 917,979 Q843,1015 731,1015 Q546,1015 418.5,902 Q291,789 259,594 Q377,672 507,672 Q659,672 750,582.5 Q841,493 841,337 Q841,171 746.5,73.5 Q652,-24 491,-24 Q372,-24 278.5,36.5 Q185,97 135,214.5 Q85,332 85,494 Q85,695 166,846.5 Q247,998 396.5,1080 Q546,1162 734,1162 Q870,1162 974,1120 Q1078,1078 1162,982 M252,436 Q257,285 321,202 Q385,119 495,119 Q574,119 622,172 Q670,225 670,322 Q670,419 618,474 Q566,529 478,529 Q362,529 252,436"/> 
            <glyph glyph-name="ത" unicode="&#xD24;" horiz-adv-x="1997" d=" M511,111 L410,-18 Q253,71 166.5,223.5 Q80,376 80,567 Q80,743 160,879.5 Q240,1016 384,1089 Q528,1162 718,1162 Q894,1162 1041,1091 Q1189,1162 1389,1162 Q1575,1162 1712.5,1089.5 Q1850,1017 1923.5,882.5 Q1997,748 1997,575 Q1997,191 1667,-18 L1566,111 Q1689,186 1752,298.5 Q1815,411 1815,554 Q1815,689 1760.5,796.5 Q1706,904 1604.5,962.5 Q1503,1021 1368,1021 Q1249,1021 1176,999 Q1312,900 1384,755.5 Q1456,611 1456,448 Q1456,225 1346.5,100.5 Q1237,-24 1039,-24 Q843,-24 732,101 Q621,226 621,448 Q621,614 694,755 Q767,896 908,999 Q833,1021 736,1021 Q593,1021 485.5,965 Q378,909 320,802.5 Q262,696 262,559 Q262,263 511,111 M1041,932 Q928,858 864.5,732 Q801,606 801,453 Q801,287 861.5,203.5 Q922,120 1039,120 Q1276,120 1276,453 Q1276,597 1212.5,726.5 Q1149,856 1041,932"/> 
            <glyph glyph-name="ഥ" unicode="&#xD25;" horiz-adv-x="1705" d=" M695,144 L695,625 Q695,773 726.5,866.5 Q758,960 824,1026 Q890,1092 983,1127 Q1076,1162 1193,1162 Q1365,1162 1481,1097 Q1597,1032 1651,921 Q1705,810 1705,625 L1705,0 L145,0 L145,1134 L324,1134 L324,144 M1528,558 Q1528,720 1499,816 Q1470,912 1392,963 Q1314,1014 1197,1014 Q1082,1014 1007.5,963.5 Q933,913 902.5,821 Q872,729 872,574 L872,144 L1528,144"/> 
            <glyph glyph-name="ദ" unicode="&#xD26;" horiz-adv-x="1236" d=" M1019,567 Q1125,530 1180.5,458 Q1236,386 1236,292 Q1236,144 1134,60.5 Q1032,-23 850,-23 Q733,-23 628,0 L665,141 Q756,121 836,121 Q949,121 1004,164 Q1059,207 1059,295 Q1059,354 1027,398 Q995,442 937.5,466 Q880,490 757,490 L663,490 L663,634 L756,634 Q1037,634 1037,826 Q1037,916 966.5,965 Q896,1014 763,1014 Q537,1014 414,863 Q291,712 291,445 Q291,205 342,19 L174,-9 Q145,84 127.5,210 Q110,336 110,449 Q110,782 282,972 Q454,1162 767,1162 Q974,1162 1094,1072.5 Q1214,983 1214,841 Q1214,743 1166.5,676.5 Q1119,610 1019,567"/> 
            <glyph glyph-name="ധ" unicode="&#xD27;" horiz-adv-x="1785" d=" M397,1161 L507,1035 Q381,945 320.5,824 Q260,703 260,543 Q260,360 349,242 Q438,124 577,124 Q649,124 699,146 Q749,168 783.5,216 Q818,264 831,327 Q844,390 844,541 L844,1134 L1021,1134 L1021,541 Q1021,423 1030,357.5 Q1039,292 1069,239.5 Q1099,187 1152,155.5 Q1205,124 1283,124 Q1372,124 1446,176 Q1520,228 1562.5,326 Q1605,424 1605,544 Q1605,858 1360,1032 L1482,1162 Q1644,1032 1714.5,883.5 Q1785,735 1785,544 Q1785,380 1722.5,250.5 Q1660,121 1544,48.5 Q1428,-24 1275,-24 Q1160,-24 1076.5,21 Q993,66 933,161 Q870,63 784,19.5 Q698,-24 575,-24 Q427,-24 315,47.5 Q203,119 141.5,249.5 Q80,380 80,543 Q80,735 156,883 Q232,1031 397,1161"/> 
            <glyph glyph-name="ന" unicode="&#xD28;" horiz-adv-x="1785" d=" M1468,-17 L1358,109 Q1483,197 1544,318 Q1605,439 1605,598 Q1605,779 1516.5,896.5 Q1428,1014 1288,1014 Q1216,1014 1165.5,991.5 Q1115,969 1080,919.5 Q1045,870 1033,805 Q1021,740 1021,597 L1021,0 L844,0 L844,597 Q844,713 835,779 Q826,845 796.5,898 Q767,951 713.5,982.5 Q660,1014 582,1014 Q443,1014 351.5,895.5 Q260,777 260,597 Q260,280 505,112 L388,-17 Q226,111 153,258.5 Q80,406 80,597 Q80,763 144,892.5 Q208,1022 324,1092 Q440,1162 590,1162 Q703,1162 787,1118 Q871,1074 932,977 Q993,1072 1079,1117 Q1165,1162 1290,1162 Q1438,1162 1550.5,1090.5 Q1663,1019 1724,889 Q1785,759 1785,598 Q1785,408 1709.5,260.5 Q1634,113 1468,-17"/> 
            <glyph glyph-name="ഩ" unicode="&#xD29;" horiz-adv-x="2012" d=" M1248,0 L1071,0 L1071,627 Q1071,792 1031,867.5 Q991,943 917,979 Q843,1015 731,1015 Q546,1015 418.5,902 Q291,789 259,594 Q377,672 507,672 Q659,672 750,582.5 Q841,493 841,337 Q841,171 746.5,73.5 Q652,-24 491,-24 Q372,-24 278.5,36.5 Q185,97 135,214.5 Q85,332 85,494 Q85,695 166,846.5 Q247,998 396.5,1080 Q546,1162 734,1162 Q872,1162 975,1120 Q1078,1078 1162,982 Q1222,1074 1307.5,1118 Q1393,1162 1517,1162 Q1665,1162 1777.5,1090.5 Q1890,1019 1951,889 Q2012,759 2012,598 Q2012,408 1936.5,260.5 Q1861,113 1695,-17 L1585,109 Q1710,197 1771,318 Q1832,439 1832,598 Q1832,779 1743.5,896.5 Q1655,1014 1515,1014 Q1443,1014 1392.5,991.5 Q1342,969 1307,919.5 Q1272,870 1260,805 Q1248,740 1248,597 M252,436 Q257,285 321,202 Q385,119 495,119 Q574,119 622,172 Q670,225 670,322 Q670,419 618,474 Q566,529 478,529 Q362,529 252,436"/> 
            <glyph glyph-name="പ" unicode="&#xD2A;" horiz-adv-x="1690" d=" M1690,0 L672,0 L613,107 Q702,190 702,323 Q702,436 641.5,500 Q581,564 470,564 Q366,564 302,498.5 Q238,433 238,335 Q238,185 358,105 L265,-14 Q166,54 115.5,144 Q65,234 65,339 Q65,502 177,605 Q289,708 470,708 Q590,708 682,662.5 Q774,617 824,534 Q874,451 874,354 Q874,223 811,144 L1511,144 L1511,1134 L1690,1134"/> 
            <glyph glyph-name="ഫ" unicode="&#xD2B;" horiz-adv-x="2182" d=" M2182,0 L672,0 L613,107 Q702,190 702,323 Q702,436 641.5,500 Q581,564 470,564 Q366,564 302,498.5 Q238,433 238,335 Q238,185 358,105 L265,-14 Q166,54 115.5,144 Q65,234 65,339 Q65,502 177,605 Q289,708 470,708 Q590,708 682,662.5 Q774,617 824,534 Q874,451 874,354 Q874,223 811,144 L1172,144 L1172,625 Q1172,773 1203.5,866.5 Q1235,960 1301,1026 Q1367,1092 1460,1127 Q1553,1162 1670,1162 Q1842,1162 1958,1097 Q2074,1032 2128,921 Q2182,810 2182,625 M2005,558 Q2005,720 1976,816 Q1947,912 1869,963 Q1791,1014 1674,1014 Q1559,1014 1484.5,963.5 Q1410,913 1379.5,821 Q1349,729 1349,574 L1349,144 L2005,144"/> 
            <glyph glyph-name="ബ" unicode="&#xD2C;" horiz-adv-x="2529" d=" M1071,627 Q1071,792 1031,867.5 Q991,943 917,979 Q843,1015 731,1015 Q546,1015 418.5,902 Q291,789 259,594 Q377,672 507,672 Q659,672 750,582.5 Q841,493 841,337 Q841,171 746.5,73.5 Q652,-24 491,-24 Q372,-24 278.5,36.5 Q185,97 135,214.5 Q85,332 85,494 Q85,695 166,846.5 Q247,998 396.5,1080 Q546,1162 734,1162 Q871,1162 974,1120.5 Q1077,1079 1162,982 Q1225,1073 1306.5,1117.5 Q1388,1162 1517,1162 Q1665,1162 1777.5,1090.5 Q1890,1019 1951,889 Q2012,759 2012,598 Q2012,473 1976.5,364 Q1941,255 1851,144 L2350,144 L2350,1134 L2529,1134 L2529,0 L1681,0 L1607,111 Q1740,238 1786,350 Q1832,462 1832,598 Q1832,780 1743,897.5 Q1654,1015 1515,1015 Q1435,1015 1383,987.5 Q1331,960 1299,908 Q1267,856 1257.5,787.5 Q1248,719 1248,597 L1248,0 L1071,0 M252,436 Q257,285 321,202 Q385,119 495,119 Q574,119 622,172 Q670,225 670,322 Q670,419 618,474 Q566,529 478,529 Q362,529 252,436"/> 
            <glyph glyph-name="ഭ" unicode="&#xD2D;" horiz-adv-x="1273" d=" M922,639 Q793,639 752.5,619 Q712,599 712,552 Q712,508 752.5,488.5 Q793,469 913,469 L938,469 Q1117,469 1195,409.5 Q1273,350 1273,232 Q1273,111 1178,43.5 Q1083,-24 911,-24 Q810,-24 701,-2.5 Q592,19 521,51 L584,191 Q738,121 908,121 Q1104,121 1104,227 Q1104,278 1068.5,302 Q1033,326 933,326 L903,326 Q696,326 620,384 Q544,442 544,549 Q544,617 577,666 Q610,715 687,748 Q764,781 907,781 L991,781 Q1057,781 1078.5,800.5 Q1100,820 1100,866 Q1100,939 1024.5,976.5 Q949,1014 808,1014 Q558,1014 424.5,864.5 Q291,715 291,445 Q291,205 342,19 L174,-9 Q145,84 127.5,210 Q110,336 110,449 Q110,784 292.5,973 Q475,1162 810,1162 Q1021,1162 1147,1083.5 Q1273,1005 1273,870 Q1273,789 1239,736.5 Q1205,684 1147.5,661.5 Q1090,639 981,639"/> 
            <glyph glyph-name="മ" unicode="&#xD2E;" horiz-adv-x="1360" d=" M1360,0 L125,0 L125,549 Q125,751 187.5,880 Q250,1009 383.5,1085.5 Q517,1162 727,1162 Q920,1162 1061,1099.5 Q1202,1037 1281,908 Q1360,779 1360,545 M302,139 L312,139 Q541,311 666.5,489.5 Q792,668 792,823 Q792,914 750.5,964.5 Q709,1015 630,1015 Q490,1015 396,892 Q302,769 302,509 M1183,509 Q1183,757 1107,864 Q1031,971 899,1005 Q937,958 952.5,910.5 Q968,863 968,804 Q968,648 870.5,488 Q773,328 563,138 Q652,144 739,144 L1183,144"/> 
            <glyph glyph-name="യ" unicode="&#xD2F;" horiz-adv-x="2035" d=" M802,1067 Q861,1114 929.5,1138 Q998,1162 1076,1162 Q1274,1162 1390,1032 Q1506,902 1506,679 Q1506,511 1436,365.5 Q1366,220 1238,125 Q1294,115 1353,115 Q1589,115 1722.5,258 Q1856,401 1856,639 Q1856,755 1818,865.5 Q1780,976 1706,1065 L1848,1162 Q1940,1054 1987.5,920.5 Q2035,787 2035,643 Q2035,444 1952.5,291 Q1870,138 1715,57 Q1560,-24 1354,-24 Q1195,-24 1069,30 Q937,-24 770,-24 Q564,-24 408,62.5 Q252,149 166,312 Q80,475 80,686 Q80,902 201.5,1032 Q323,1162 524,1162 Q689,1162 802,1067 M1066,175 Q1186,244 1256,379 Q1326,514 1326,679 Q1326,842 1258.5,930 Q1191,1018 1076,1018 Q957,1018 887,928 Q817,838 817,679 Q817,523 883.5,385.5 Q950,248 1066,175 M700,944 Q632,1018 527,1018 Q403,1018 331,928.5 Q259,839 259,681 Q259,525 322.5,394 Q386,263 505.5,189 Q625,115 784,115 Q853,115 903,124 Q770,229 704,371 Q638,513 638,692 Q638,833 700,944"/> 
            <glyph glyph-name="ര" unicode="&#xD30;" horiz-adv-x="1427" d=" M1225,732 Q1175,865 1048.5,939.5 Q922,1014 746,1014 Q520,1014 391,893 Q262,772 262,559 Q262,263 511,111 L410,-18 Q253,71 166.5,223.5 Q80,376 80,567 Q80,736 157.5,873.5 Q235,1011 386,1086.5 Q537,1162 745,1162 Q954,1162 1107.5,1083.5 Q1261,1005 1344,852.5 Q1427,700 1427,495 Q1427,243 1312.5,109.5 Q1198,-24 993,-24 Q811,-24 703,96 Q595,216 595,402 Q595,595 700,711 Q805,827 980,827 Q1118,827 1225,732 M1254,561 Q1207,621 1145.5,652.5 Q1084,684 1015,684 Q895,684 831.5,611.5 Q768,539 768,406 Q768,266 825.5,193 Q883,120 993,120 Q1127,120 1192,216.5 Q1257,313 1257,508 Q1257,524 1254,561"/> 
            <glyph glyph-name="റ" unicode="&#xD31;" horiz-adv-x="1301" d=" M870,111 Q990,184 1054.5,298 Q1119,412 1119,554 Q1119,763 1004.5,888.5 Q890,1014 692,1014 Q563,1014 465,956 Q367,898 314.5,793 Q262,688 262,559 Q262,411 324,299 Q386,187 511,111 L410,-17 Q253,71 166.5,223.5 Q80,376 80,567 Q80,741 156.5,878.5 Q233,1016 373,1089 Q513,1162 698,1162 Q883,1162 1019.5,1090 Q1156,1018 1228.5,883 Q1301,748 1301,575 Q1301,383 1218.5,234.5 Q1136,86 971,-18"/> 
            <glyph glyph-name="ല" unicode="&#xD32;" horiz-adv-x="1614" d=" M307,454 L307,144 L1437,144 L1437,1134 L1614,1134 L1614,0 L130,0 L130,641 Q130,834 189,942.5 Q248,1051 357.5,1106.5 Q467,1162 624,1162 Q870,1162 993,1036 Q1116,910 1116,659 L1116,454 M307,598 L939,598 L939,655 Q939,847 864.5,932.5 Q790,1018 622,1018 Q456,1018 381.5,932 Q307,846 307,658"/> 
            <glyph glyph-name="ള" unicode="&#xD33;" horiz-adv-x="1392" d=" M270,794 Q366,852 470,852 Q613,852 694,769.5 Q775,687 775,553 Q775,413 683.5,324.5 Q592,236 431,236 Q270,236 175.5,342 Q81,448 81,637 Q81,783 167,904 Q253,1025 414.5,1093.5 Q576,1162 791,1162 Q1065,1162 1217,1072.5 Q1369,983 1369,824 Q1369,649 1183,568 Q1288,534 1340,466 Q1392,398 1392,302 Q1392,241 1367,180 Q1342,119 1287.5,76.5 Q1233,34 1165.5,17 Q1098,0 992,0 L535,0 Q419,0 371,-14 Q323,-28 300.5,-56.5 Q278,-85 278,-126 Q278,-198 332,-231 Q386,-264 530,-264 L1301,-264 L1301,-412 L523,-412 Q303,-412 202,-338 Q101,-264 101,-140 Q101,-61 133.5,1 Q166,63 248.5,103.5 Q331,144 487,144 L943,144 Q1044,144 1096.5,157 Q1149,170 1182,206.5 Q1215,243 1215,315 Q1215,396 1151,443 Q1087,490 970,490 L908,490 L908,634 L921,634 Q1005,634 1050,645.5 Q1095,657 1128,682 Q1161,707 1176.5,740 Q1192,773 1192,816 Q1192,911 1085.5,964.5 Q979,1018 782,1018 Q600,1018 468,961 Q336,904 270,794 M235,621 Q240,376 429,376 Q512,376 558.5,424.5 Q605,473 605,552 Q605,630 561.5,673.5 Q518,717 438,717 Q326,717 235,621"/> 
            <glyph glyph-name="ഴ" unicode="&#xD34;" horiz-adv-x="1265" d=" M884,328 Q891,288 891,251 Q891,122 806.5,49 Q722,-24 558,-24 Q372,-24 229,56 L293,192 Q418,122 554,122 Q637,122 679,152.5 Q721,183 721,258 Q721,280 718,308 L676,308 Q390,308 232.5,445.5 Q75,583 75,822 Q75,996 186,1162 L323,1086 Q286,1020 269,962.5 Q252,905 252,836 Q252,651 359,551.5 Q466,452 671,449 Q651,491 628,532 Q585,608 562,678.5 Q539,749 539,828 Q539,977 636.5,1069.5 Q734,1162 903,1162 Q1074,1162 1169.5,1059.5 Q1265,957 1265,802 Q1265,633 1163,503 Q1061,373 884,328 M836,464 Q954,498 1021,592 Q1088,686 1088,814 Q1088,910 1039.5,965 Q991,1020 899,1020 Q810,1020 760.5,968 Q711,916 711,825 Q711,754 733,686.5 Q755,619 794,547 Q816,506 836,464"/> 
            <glyph glyph-name="വ" unicode="&#xD35;" horiz-adv-x="1818" d=" M887,121 Q1003,200 1061,308.5 Q1119,417 1119,554 Q1119,764 1004,889 Q889,1014 690,1014 Q563,1014 465,956.5 Q367,899 314.5,793.5 Q262,688 262,559 Q262,411 324,299 Q386,187 511,111 L410,-18 Q253,71 166.5,223.5 Q80,376 80,567 Q80,741 156.5,878.5 Q233,1016 373,1089 Q513,1162 698,1162 Q883,1162 1019.5,1090 Q1156,1018 1228.5,883 Q1301,748 1301,575 Q1301,454 1263,350.5 Q1225,247 1138,144 L1639,144 L1639,1135 L1818,1135 L1818,0 L957,0"/> 
            <glyph glyph-name="ശ" unicode="&#xD36;" horiz-adv-x="2050" d=" M1852,728 Q1803,858 1683,936 Q1563,1014 1412,1014 Q1209,1014 1108.5,906.5 Q1008,799 1008,539 L1008,504 Q1008,352 982.5,261.5 Q957,171 898.5,105.5 Q840,40 760,8.5 Q680,-23 569,-23 Q342,-23 211,126.5 Q80,276 80,538 Q80,735 156.5,884 Q233,1033 397,1162 L507,1035 Q260,858 260,543 Q260,354 343.5,239.5 Q427,125 561,125 Q702,125 765,207.5 Q828,290 828,543 L828,573 Q828,769 886,891 Q944,1013 1072,1087.5 Q1200,1162 1401,1162 Q1599,1162 1746,1081 Q1893,1000 1971.5,848 Q2050,696 2050,495 Q2050,242 1936.5,109 Q1823,-24 1616,-24 Q1434,-24 1326,96 Q1218,216 1218,402 Q1218,595 1323,711 Q1428,827 1603,827 Q1743,827 1852,728 M1877,561 Q1830,621 1768.5,652.5 Q1707,684 1638,684 Q1518,684 1454.5,611.5 Q1391,539 1391,406 Q1391,266 1448.5,193 Q1506,120 1616,120 Q1750,120 1815,216.5 Q1880,313 1880,508 Q1880,524 1877,561"/> 
            <glyph glyph-name="ഷ" unicode="&#xD37;" horiz-adv-x="2209" d=" M1525,636 Q1673,669 1796.5,786 Q1920,903 2035,1134 L2209,1134 L2209,0 L672,0 L613,107 Q702,190 702,323 Q702,436 641.5,500 Q581,564 470,564 Q366,564 302,498.5 Q238,433 238,335 Q238,185 358,105 L265,-14 Q166,54 115.5,144 Q65,234 65,339 Q65,502 177,605 Q289,708 470,708 Q590,708 682,662.5 Q774,617 824,534 Q874,451 874,354 Q874,223 811,144 L1348,144 L1348,481 Q1125,485 1005,587 Q885,689 885,853 Q885,981 973.5,1071.5 Q1062,1162 1208,1162 Q1321,1162 1393,1117 Q1465,1072 1495,998 Q1525,924 1525,790 M1348,622 L1348,780 Q1348,869 1336,917 Q1324,965 1288,991.5 Q1252,1018 1200,1018 Q1136,1018 1099,975.5 Q1062,933 1062,856 Q1062,743 1134.5,682.5 Q1207,622 1348,622 M2039,888 Q1967,726 1830.5,620 Q1694,514 1525,489 L1525,144 L2032,144 L2032,763 Q2032,840 2039,888"/> 
            <glyph glyph-name="സ" unicode="&#xD38;" horiz-adv-x="2425" d=" M1678,552 Q1678,392 1697.5,306.5 Q1717,221 1777,172.5 Q1837,124 1937,124 Q2075,124 2160,237.5 Q2245,351 2245,544 Q2245,697 2182.5,822 Q2120,947 2000,1032 L2122,1162 Q2284,1032 2354.5,884 Q2425,736 2425,544 Q2425,282 2289,129 Q2153,-24 1924,-24 Q1818,-24 1735,9 Q1652,42 1596.5,109.5 Q1541,177 1520,272 Q1499,367 1499,532 L1499,605 Q1499,779 1476.5,856.5 Q1454,934 1400.5,974.5 Q1347,1015 1260,1015 Q1177,1015 1120,970.5 Q1063,926 1042,848 Q1021,770 1021,633 L1021,0 L844,0 L844,597 Q844,752 824,831.5 Q804,911 741.5,963 Q679,1015 582,1015 Q493,1015 419.5,963 Q346,911 303,813.5 Q260,716 260,597 Q260,282 505,112 L388,-18 Q226,110 153,257.5 Q80,405 80,597 Q80,759 143,889 Q206,1019 322,1090.5 Q438,1162 590,1162 Q701,1162 784,1119 Q867,1076 934,975 Q1047,1162 1284,1162 Q1409,1162 1496,1106.5 Q1583,1051 1630.5,948 Q1678,845 1678,620"/> 
            <glyph glyph-name="ഹ" unicode="&#xD39;" horiz-adv-x="2357" d=" M1926,111 Q2046,184 2110.5,298 Q2175,412 2175,554 Q2175,763 2060.5,888.5 Q1946,1014 1748,1014 Q1619,1014 1521,956 Q1423,898 1370.5,793 Q1318,688 1318,559 Q1318,413 1375,306.5 Q1432,200 1550,120 L1473,0 L672,0 L613,107 Q702,190 702,323 Q702,436 641.5,500 Q581,564 470,564 Q366,564 302,498.5 Q238,433 238,335 Q238,185 358,105 L265,-14 Q166,54 115.5,144 Q65,234 65,339 Q65,502 177,605 Q289,708 470,708 Q590,708 682,662.5 Q774,617 824,534 Q874,451 874,354 Q874,223 811,144 L1298,144 Q1136,330 1136,575 Q1136,745 1213,881 Q1290,1017 1430,1089.5 Q1570,1162 1754,1162 Q1939,1162 2075.5,1090 Q2212,1018 2284.5,883 Q2357,748 2357,575 Q2357,383 2274.5,234.5 Q2192,86 2027,-18"/> 
            <glyph glyph-name="ഺ" unicode="&#xD3A;" horiz-adv-x="1549" d=" M795,0 L145,0 L145,1134 L324,1134 L324,144 L1549,144 L1549,0 L974,0 L974,-353 L795,-353"/> 
            <glyph glyph-name="ഽ" unicode="&#xD3D;" horiz-adv-x="1133" d=" M568,10 Q568,-257 471,-378.5 Q374,-500 179,-500 Q43,-500 -48.5,-423.5 Q-140,-347 -179,-199 L0,-166 Q27,-265 70,-310.5 Q113,-356 182,-356 Q252,-356 297,-320.5 Q342,-285 364,-217 Q386,-149 386,-1 L386,1084 Q386,1235 402,1321.5 Q418,1408 465,1476 Q512,1544 588.5,1583.5 Q665,1623 775,1623 Q910,1623 1002,1546.5 Q1094,1470 1133,1322 L954,1289 Q924,1394 881,1436.5 Q838,1479 772,1479 Q699,1479 652.5,1440 Q606,1401 587,1327 Q568,1253 568,1095"/> 
            <glyph glyph-name="ാ" unicode="&#xD3E;" horiz-adv-x="948" d=" M34,347 L212,380 Q277,120 472,120 Q618,120 693,235 Q768,350 768,569 Q768,785 694.5,901.5 Q621,1018 482,1018 Q385,1018 317,948 Q249,878 220,758 L43,792 Q96,974 211,1068 Q326,1162 493,1162 Q714,1162 831,1004.5 Q948,847 948,571 Q948,282 827,129 Q706,-24 473,-24 Q304,-24 189.5,74.5 Q75,173 34,347"/> 
            <glyph glyph-name="ി" unicode="&#xD3F;" horiz-adv-x="322" d=" M-420,1282 Q-432,1337 -432,1380 Q-432,1539 -331,1633 Q-230,1727 -70,1727 Q83,1727 172,1657 Q261,1587 291.5,1480.5 Q322,1374 322,1162 L322,0 L145,0 L145,1111 Q145,1305 127,1398.5 Q109,1492 61.5,1537.5 Q14,1583 -65,1583 Q-148,1583 -201.5,1531.5 Q-255,1480 -255,1388 Q-255,1351 -247,1313"/> 
            <glyph glyph-name="ീ" unicode="&#xD40;" horiz-adv-x="322" d=" M322,0 L145,0 L145,1076 Q145,1229 131.5,1321 Q118,1413 73,1477.5 Q28,1542 -44,1569 Q-14,1523 -14,1446 Q-14,1322 -89,1253 Q-164,1184 -306,1184 Q-426,1184 -507,1257 Q-588,1330 -588,1450 Q-588,1573 -489,1649.5 Q-390,1726 -224,1726 Q-34,1726 88.5,1663.5 Q211,1601 266.5,1480 Q322,1359 322,1110 M-211,1596 L-225,1596 Q-313,1599 -370.5,1558 Q-428,1517 -428,1446 Q-428,1389 -393.5,1355 Q-359,1321 -297,1321 Q-230,1321 -193.5,1358.5 Q-157,1396 -157,1457 Q-157,1537 -211,1596"/> 
            <glyph glyph-name="ു" unicode="&#xD41;" horiz-adv-x="687" d=" M255,243 Q310,438 333,569.5 Q356,701 356,809 Q356,913 315.5,963.5 Q275,1014 193,1014 Q132,1014 70,998 L35,1139 Q118,1162 213,1162 Q372,1162 454,1073.5 Q536,985 536,820 Q536,708 508.5,561.5 Q481,415 426,234 Q550,203 618.5,111.5 Q687,20 687,-109 Q687,-269 584.5,-367.5 Q482,-466 317,-466 Q149,-466 48,-368 Q-53,-270 -53,-109 Q-53,30 29.5,126 Q112,222 255,243 M115,-111 Q115,-212 170.5,-271 Q226,-330 317,-330 Q407,-330 463,-271.5 Q519,-213 519,-109 Q519,-7 464.5,52 Q410,111 316,111 Q225,111 170,52.5 Q115,-6 115,-111"/> 
            <glyph glyph-name="ൂ" unicode="&#xD42;" horiz-adv-x="687" d=" M255,243 Q310,438 333,569.5 Q356,701 356,809 Q356,913 315.5,963.5 Q275,1014 193,1014 Q132,1014 70,998 L35,1139 Q118,1162 213,1162 Q372,1162 454,1073.5 Q536,985 536,820 Q536,708 508.5,561.5 Q481,415 426,234 Q550,203 618.5,111.5 Q687,20 687,-109 Q687,-269 584,-367.5 Q481,-466 316,-466 Q148,-466 47.5,-367.5 Q-53,-269 -53,-109 Q-53,31 30,127.5 Q113,224 255,243 M199,92 Q185,67 185,42 Q185,-7 219,-34.5 Q253,-62 317,-62 Q375,-62 410,-33.5 Q445,-5 445,42 Q445,70 425,95 Q376,116 314,116 Q250,116 199,92 M90,-37 Q81,-70 81,-111 Q81,-214 146.5,-274.5 Q212,-335 315,-335 Q419,-335 484,-274 Q549,-213 549,-109 Q549,-72 541,-40 Q520,-118 462.5,-159 Q405,-200 315,-200 Q226,-200 167.5,-158.5 Q109,-117 90,-37"/> 
            <glyph glyph-name="ൃ" unicode="&#xD43;" horiz-adv-x="322" d=" M33,-491 Q65,-463 93,-410.5 Q121,-358 133,-279.5 Q145,-201 145,-45 L145,1134 L322,1134 L322,-51 Q322,-297 269.5,-421 Q217,-545 99.5,-617.5 Q-18,-690 -227,-690 Q-401,-690 -502,-607.5 Q-603,-525 -603,-393 Q-603,-264 -510.5,-185.5 Q-418,-107 -276,-107 Q-120,-107 -37.5,-183 Q45,-259 45,-396 Q45,-447 33,-491 M-153,-554 Q-101,-489 -101,-398 Q-101,-333 -148,-290 Q-195,-247 -278,-247 Q-354,-247 -397,-286.5 Q-440,-326 -440,-391 Q-440,-470 -384,-514 Q-328,-558 -224,-558 Q-187,-558 -153,-554"/> 
            <glyph glyph-name="ൄ" unicode="&#xD44;" horiz-adv-x="482" d=" M56,-53 L19,-177 Q-66,-154 -157,-154 Q-290,-154 -360.5,-207 Q-431,-260 -431,-353 Q-431,-460 -351,-508.5 Q-271,-557 -102,-557 Q16,-557 95.5,-517.5 Q175,-478 222,-404.5 Q269,-331 287,-214 Q305,-97 305,103 L305,1134 L482,1134 L482,10 Q482,-268 413.5,-411.5 Q345,-555 217,-622.5 Q89,-690 -106,-690 Q-339,-690 -461,-602 Q-583,-514 -583,-346 Q-583,-198 -474.5,-111 Q-366,-24 -179,-24 Q-55,-24 56,-53 M-108,-260 Q-68,-211 -2,-211 Q64,-211 104.5,-252.5 Q145,-294 145,-365 Q145,-433 122,-488 L23,-479 Q45,-426 45,-380 Q45,-297 -12,-297 Q-41,-297 -54,-319 Q-60,-331 -60,-379 L-60,-488 L-156,-488 L-156,-379 Q-156,-335 -165.5,-316 Q-175,-297 -204,-297 Q-262,-297 -262,-380 Q-262,-429 -239,-479 L-339,-488 Q-361,-435 -361,-365 Q-361,-293 -321,-252 Q-281,-211 -215,-211 Q-148,-211 -108,-260"/> 
            <glyph glyph-name="െ" unicode="&#xD46;" horiz-adv-x="1385" d=" M954,111 Q1074,184 1138.5,298 Q1203,412 1203,554 Q1203,766 1082.5,890 Q962,1014 757,1014 Q573,1014 436.5,901 Q300,788 260,598 Q375,672 502,672 Q654,672 745,582.5 Q836,493 836,337 Q836,171 741.5,73.5 Q647,-24 486,-24 Q368,-24 274,36.5 Q180,97 130,210.5 Q80,324 80,476 Q80,679 167,835 Q254,991 412,1076.5 Q570,1162 766,1162 Q1058,1162 1221.5,1002.5 Q1385,843 1385,575 Q1385,383 1302.5,234.5 Q1220,86 1055,-18 M247,437 Q252,283 316,201 Q380,119 491,119 Q570,119 617.5,173.5 Q665,228 665,323 Q665,419 612.5,474 Q560,529 473,529 Q356,529 247,437"/> 
            <glyph glyph-name="േ" unicode="&#xD47;" horiz-adv-x="1144" d=" M601,1015 Q438,978 350,863.5 Q262,749 262,574 Q262,406 348,285.5 Q434,165 587,127 Q556,186 556,259 Q556,380 630.5,451.5 Q705,523 844,523 Q969,523 1050.5,450.5 Q1132,378 1132,256 Q1132,126 1031,51 Q930,-24 745,-24 Q551,-24 397.5,48 Q244,120 162,255 Q80,390 80,576 Q80,753 163,885 Q246,1017 401.5,1089.5 Q557,1162 750,1162 Q939,1162 1041.5,1087 Q1144,1012 1144,882 Q1144,761 1063.5,688 Q983,615 862,615 Q719,615 643.5,686.5 Q568,758 568,885 Q568,952 601,1015 M765,1032 Q713,974 713,891 Q713,832 750,790.5 Q787,749 853,749 Q916,749 950,784.5 Q984,820 984,878 Q984,951 931,991.5 Q878,1032 796,1032 M752,107 L765,106 Q856,103 914,143 Q972,183 972,260 Q972,318 938,353.5 Q904,389 841,389 Q775,389 738,347.5 Q701,306 701,247 Q701,165 752,107"/> 
            <glyph glyph-name="ൈ" unicode="&#xD48;" horiz-adv-x="2855" d=" M2424,111 Q2544,184 2608.5,298 Q2673,412 2673,554 Q2673,766 2552.5,890 Q2432,1014 2227,1014 Q2043,1014 1906.5,901 Q1770,788 1730,598 Q1845,672 1972,672 Q2124,672 2215,582.5 Q2306,493 2306,337 Q2306,171 2211.5,73.5 Q2117,-24 1956,-24 Q1838,-24 1744,36.5 Q1650,97 1600,210.5 Q1550,324 1550,476 Q1550,679 1637,835 Q1724,991 1882,1076.5 Q2040,1162 2236,1162 Q2528,1162 2691.5,1002.5 Q2855,843 2855,575 Q2855,383 2772.5,234.5 Q2690,86 2525,-18 M1717,437 Q1722,283 1786,201 Q1850,119 1961,119 Q2040,119 2087.5,173.5 Q2135,228 2135,323 Q2135,419 2082.5,474 Q2030,529 1943,529 Q1826,529 1717,437 M954,111 Q1074,184 1138.5,298 Q1203,412 1203,554 Q1203,766 1082.5,890 Q962,1014 757,1014 Q573,1014 436.5,901 Q300,788 260,598 Q375,672 502,672 Q654,672 745,582.5 Q836,493 836,337 Q836,171 741.5,73.5 Q647,-24 486,-24 Q368,-24 274,36.5 Q180,97 130,210.5 Q80,324 80,476 Q80,679 167,835 Q254,991 412,1076.5 Q570,1162 766,1162 Q1058,1162 1221.5,1002.5 Q1385,843 1385,575 Q1385,383 1302.5,234.5 Q1220,86 1055,-18 M247,437 Q252,283 316,201 Q380,119 491,119 Q570,119 617.5,173.5 Q665,228 665,323 Q665,419 612.5,474 Q560,529 473,529 Q356,529 247,437"/> 
            <glyph glyph-name="ൊ" unicode="&#xD4A;" horiz-adv-x="2838" d=" M954,111 Q1074,184 1138.5,298 Q1203,412 1203,554 Q1203,766 1082.5,890 Q962,1014 757,1014 Q573,1014 436.5,901 Q300,788 260,598 Q375,672 502,672 Q654,672 745,582.5 Q836,493 836,337 Q836,171 741.5,73.5 Q647,-24 486,-24 Q368,-24 274,36.5 Q180,97 130,210.5 Q80,324 80,476 Q80,679 167,835 Q254,991 412,1076.5 Q570,1162 766,1162 Q1058,1162 1221.5,1002.5 Q1385,843 1385,575 Q1385,383 1302.5,234.5 Q1220,86 1055,-18 M247,437 Q252,283 316,201 Q380,119 491,119 Q570,119 617.5,173.5 Q665,228 665,323 Q665,419 612.5,474 Q560,529 473,529 Q356,529 247,437 M1557,611 Q1557,649 1567,675.5 Q1577,702 1594,718.5 Q1611,735 1634,742.5 Q1657,750 1684,750 Q1710,750 1733.5,742.5 Q1757,735 1774,718.5 Q1791,702 1801,675.5 Q1811,649 1811,611 Q1811,574 1801,547.5 Q1791,521 1774,504 Q1757,487 1733.5,479 Q1710,471 1684,471 Q1657,471 1634,479 Q1611,487 1594,504 Q1577,521 1567,547.5 Q1557,574 1557,611 M1924,347 L2102,380 Q2167,120 2362,120 Q2508,120 2583,235 Q2658,350 2658,569 Q2658,785 2584.5,901.5 Q2511,1018 2372,1018 Q2275,1018 2207,948 Q2139,878 2110,758 L1933,792 Q1986,974 2101,1068 Q2216,1162 2383,1162 Q2604,1162 2721,1004.5 Q2838,847 2838,571 Q2838,282 2717,129 Q2596,-24 2363,-24 Q2194,-24 2079.5,74.5 Q1965,173 1924,347"/> 
            <glyph glyph-name="ോ" unicode="&#xD4B;" horiz-adv-x="2562" d=" M601,1015 Q438,978 350,863.5 Q262,749 262,574 Q262,406 348,285.5 Q434,165 587,127 Q556,186 556,259 Q556,380 630.5,451.5 Q705,523 844,523 Q969,523 1050.5,450.5 Q1132,378 1132,256 Q1132,126 1031,51 Q930,-24 745,-24 Q551,-24 397.5,48 Q244,120 162,255 Q80,390 80,576 Q80,753 163,885 Q246,1017 401.5,1089.5 Q557,1162 750,1162 Q939,1162 1041.5,1087 Q1144,1012 1144,882 Q1144,761 1063.5,688 Q983,615 862,615 Q719,615 643.5,686.5 Q568,758 568,885 Q568,952 601,1015 M765,1032 Q713,974 713,891 Q713,832 750,790.5 Q787,749 853,749 Q916,749 950,784.5 Q984,820 984,878 Q984,951 931,991.5 Q878,1032 796,1032 M752,107 L765,106 Q856,103 914,143 Q972,183 972,260 Q972,318 938,353.5 Q904,389 841,389 Q775,389 738,347.5 Q701,306 701,247 Q701,165 752,107 M1281,611 Q1281,649 1291,675.5 Q1301,702 1318,718.5 Q1335,735 1358,742.5 Q1381,750 1408,750 Q1434,750 1457.5,742.5 Q1481,735 1498,718.5 Q1515,702 1525,675.5 Q1535,649 1535,611 Q1535,574 1525,547.5 Q1515,521 1498,504 Q1481,487 1457.5,479 Q1434,471 1408,471 Q1381,471 1358,479 Q1335,487 1318,504 Q1301,521 1291,547.5 Q1281,574 1281,611 M1648,347 L1826,380 Q1891,120 2086,120 Q2232,120 2307,235 Q2382,350 2382,569 Q2382,785 2308.5,901.5 Q2235,1018 2096,1018 Q1999,1018 1931,948 Q1863,878 1834,758 L1657,792 Q1710,974 1825,1068 Q1940,1162 2107,1162 Q2328,1162 2445,1004.5 Q2562,847 2562,571 Q2562,282 2441,129 Q2320,-24 2087,-24 Q1918,-24 1803.5,74.5 Q1689,173 1648,347"/> 
            <glyph glyph-name="ൌ" unicode="&#xD4C;" horiz-adv-x="3369" d=" M954,111 Q1074,184 1138.5,298 Q1203,412 1203,554 Q1203,766 1082.5,890 Q962,1014 757,1014 Q573,1014 436.5,901 Q300,788 260,598 Q375,672 502,672 Q654,672 745,582.5 Q836,493 836,337 Q836,171 741.5,73.5 Q647,-24 486,-24 Q368,-24 274,36.5 Q180,97 130,210.5 Q80,324 80,476 Q80,679 167,835 Q254,991 412,1076.5 Q570,1162 766,1162 Q1058,1162 1221.5,1002.5 Q1385,843 1385,575 Q1385,383 1302.5,234.5 Q1220,86 1055,-18 M247,437 Q252,283 316,201 Q380,119 491,119 Q570,119 617.5,173.5 Q665,228 665,323 Q665,419 612.5,474 Q560,529 473,529 Q356,529 247,437 M1557,611 Q1557,649 1567,675.5 Q1577,702 1594,718.5 Q1611,735 1634,742.5 Q1657,750 1684,750 Q1710,750 1733.5,742.5 Q1757,735 1774,718.5 Q1791,702 1801,675.5 Q1811,649 1811,611 Q1811,574 1801,547.5 Q1791,521 1774,504 Q1757,487 1733.5,479 Q1710,471 1684,471 Q1657,471 1634,479 Q1611,487 1594,504 Q1577,521 1567,547.5 Q1557,574 1557,611 M2009,521 Q1989,577 1978,646.5 Q1967,716 1967,775 Q1967,947 2071,1054.5 Q2175,1162 2357,1162 Q2542,1162 2647,1006 Q2703,1088 2777,1125 Q2851,1162 2949,1162 Q3142,1162 3255.5,1016 Q3369,870 3369,624 Q3369,312 3223,144 Q3077,-24 2810,-24 Q2674,-24 2568.5,0 Q2463,24 2352,81 L2441,222 Q2525,171 2610,147.5 Q2695,124 2800,124 Q2993,124 3091,247 Q3189,370 3189,625 Q3189,812 3126,913 Q3063,1014 2950,1014 Q2883,1014 2841,991.5 Q2799,969 2775.5,931 Q2752,893 2745,840.5 Q2738,788 2738,697 L2738,528 L2564,528 L2564,682 Q2564,814 2545,877 Q2526,940 2477.5,977.5 Q2429,1015 2360,1015 Q2259,1015 2201.5,946 Q2144,877 2144,762 Q2144,651 2174,554"/> 
            <glyph glyph-name="്" unicode="&#xD4D;" horiz-adv-x="144" d=" M-578,1675 L-426,1647 Q-438,1602 -438,1547 Q-438,1449 -384,1399.5 Q-330,1350 -227,1350 Q-124,1350 -70,1399.5 Q-16,1449 -16,1547 Q-16,1602 -28,1647 L124,1675 Q144,1604 144,1540 Q144,1388 45,1299.5 Q-54,1211 -227,1211 Q-400,1211 -499,1299.5 Q-598,1388 -598,1540 Q-598,1611 -578,1675"/> 
            <glyph glyph-name="ൎ" unicode="&#xD4E;" horiz-adv-x="987" d=" M987,1657 L968,1284 L796,1284 L777,1657"/> 
            <glyph glyph-name="ൗ" unicode="&#xD57;" horiz-adv-x="1475" d=" M115,521 Q95,577 84,646.5 Q73,716 73,775 Q73,947 177,1054.5 Q281,1162 463,1162 Q648,1162 753,1006 Q809,1088 883,1125 Q957,1162 1055,1162 Q1248,1162 1361.5,1016 Q1475,870 1475,624 Q1475,312 1329,144 Q1183,-24 916,-24 Q780,-24 674.5,0 Q569,24 458,81 L547,222 Q631,171 716,147.5 Q801,124 906,124 Q1099,124 1197,247 Q1295,370 1295,625 Q1295,812 1232,913 Q1169,1014 1056,1014 Q989,1014 947,991.5 Q905,969 881.5,931 Q858,893 851,840.5 Q844,788 844,697 L844,528 L670,528 L670,682 Q670,814 651,877 Q632,940 583.5,977.5 Q535,1015 466,1015 Q365,1015 307.5,946 Q250,877 250,762 Q250,651 280,554"/> 
            <glyph glyph-name="ൠ" unicode="&#xD60;" horiz-adv-x="1709" d=" M404,230 Q261,282 168,417 Q75,552 75,735 Q75,932 178,1047 Q281,1162 459,1162 Q622,1162 715.5,1067.5 Q809,973 809,825 Q809,687 723,600 Q637,513 487,513 Q348,513 248,584 Q291,489 364.5,427.5 Q438,366 550,343 Q662,320 860,320 L910,320 Q1105,320 1222.5,341 Q1340,362 1416,420.5 Q1492,479 1536,584 Q1433,513 1297,513 Q1144,513 1059.5,601.5 Q975,690 975,830 Q975,976 1073,1069 Q1171,1162 1340,1162 Q1510,1162 1609.5,1048.5 Q1709,935 1709,742 Q1709,549 1614,414.5 Q1519,280 1371,233 Q1506,192 1573.5,119.5 Q1641,47 1641,-57 Q1641,-253 1458,-344.5 Q1275,-436 900,-436 Q503,-436 323,-345 Q143,-254 143,-51 Q143,48 208,118 Q273,188 404,230 M1550,748 Q1544,885 1489,952.5 Q1434,1020 1335,1020 Q1243,1020 1191.5,968.5 Q1140,917 1140,831 Q1140,750 1187.5,704 Q1235,658 1323,658 Q1387,658 1442,677.5 Q1497,697 1550,748 M234,755 Q285,700 340,679 Q395,658 461,658 Q549,658 596.5,704 Q644,750 644,831 Q644,915 594,967.5 Q544,1020 458,1020 Q355,1020 296.5,952.5 Q238,885 234,755 M894,180 L878,180 Q588,180 455,122.5 Q322,65 322,-55 Q322,-188 459,-242 Q596,-296 898,-296 Q1189,-296 1325.5,-239.5 Q1462,-183 1462,-58 Q1462,63 1334,121.5 Q1206,180 894,180 M892,61 Q948,125 1050,125 Q1149,125 1208.5,71.5 Q1268,18 1268,-76 Q1268,-160 1237,-236 L1118,-225 Q1147,-159 1147,-96 Q1147,-40 1118,-8.5 Q1089,23 1038,23 Q1001,23 981.5,11 Q962,-1 956,-18 Q950,-35 950,-83 L950,-236 L834,-236 L834,-83 Q834,-41 828.5,-21.5 Q823,-2 803,10.5 Q783,23 746,23 Q695,23 666,-8.5 Q637,-40 637,-96 Q637,-159 666,-225 L547,-236 Q516,-160 516,-76 Q516,18 575,71.5 Q634,125 734,125 Q832,125 892,61"/> 
            <glyph glyph-name="ൡ" unicode="&#xD61;" horiz-adv-x="2645" d=" M2038,780 Q1980,897 1875.5,955.5 Q1771,1014 1619,1014 Q1507,1014 1417.5,968 Q1328,922 1288,836.5 Q1248,751 1248,590 L1248,0 L1071,0 L1071,627 Q1071,792 1031,867.5 Q991,943 917,979 Q843,1015 731,1015 Q546,1015 418.5,902 Q291,789 259,594 Q377,672 507,672 Q659,672 750,582.5 Q841,493 841,337 Q841,171 746.5,73.5 Q652,-24 491,-24 Q372,-24 278.5,36.5 Q185,97 135,214.5 Q85,332 85,494 Q85,695 166,846.5 Q247,998 396.5,1080 Q546,1162 734,1162 Q873,1162 979,1118.5 Q1085,1075 1171,971 Q1253,1066 1364.5,1114 Q1476,1162 1618,1162 Q1845,1162 2002,1056 Q2159,950 2227,751 Q2425,693 2535,542 Q2645,391 2645,186 Q2645,-97 2477,-254.5 Q2309,-412 2004,-412 Q1821,-412 1661,-352 L1718,-209 Q1840,-262 2009,-262 Q2236,-262 2353,-145.5 Q2470,-29 2470,188 Q2470,324 2418.5,422 Q2367,520 2265,579 Q2272,520 2272,458 Q2272,225 2158,100.5 Q2044,-24 1836,-24 Q1718,-24 1631,24.5 Q1544,73 1498,161 Q1452,249 1452,351 Q1452,555 1591.5,668 Q1731,781 1989,781 Q2014,781 2038,780 M2086,633 Q2045,640 1995,640 Q1811,640 1719.5,567.5 Q1628,495 1628,351 Q1628,248 1684,183 Q1740,118 1843,118 Q1969,118 2035.5,206.5 Q2102,295 2102,461 Q2102,553 2086,633 M252,436 Q257,285 321,202 Q385,119 495,119 Q574,119 622,172 Q670,225 670,322 Q670,419 618,474 Q566,529 478,529 Q362,529 252,436"/> 
            <glyph glyph-name="ൢ" unicode="&#xD62;" horiz-adv-x="-69" d=" M64737,-680 L64587,-680 L64587,-346 Q64587,-251 64564.5,-198 Q64542,-145 64487.5,-114.5 Q64433,-84 64344,-84 Q64257,-84 64175.5,-123 Q64094,-162 64055,-226 Q64131,-188 64203,-188 Q64320,-188 64387,-256.5 Q64454,-325 64454,-438 Q64454,-554 64379,-622 Q64304,-690 64171,-690 Q64037,-690 63959,-600 Q63881,-510 63881,-353 Q63881,-241 63941,-151 Q64001,-61 64109.5,-11 Q64218,39 64351,39 Q64446,39 64521.5,11 Q64597,-17 64677,-90 Q64727,-27 64807,4 Q64887,35 64997,35 Q65212,35 65339.5,-75 Q65467,-185 65467,-369 Q65467,-524 65384,-607 Q65301,-690 65158,-690 Q65028,-690 64951,-615.5 Q64874,-541 64874,-429 Q64874,-310 64946,-238.5 Q65018,-167 65139,-167 Q65227,-167 65292,-216 Q65250,-154 65174,-119 Q65098,-84 64999,-84 Q64901,-84 64842,-117.5 Q64783,-151 64760,-210.5 Q64737,-270 64737,-375 M65324,-355 Q65265,-289 65178,-289 Q65102,-289 65060.5,-324.5 Q65019,-360 65019,-426 Q65019,-496 65055,-532 Q65091,-568 65160,-568 Q65244,-568 65284,-516.5 Q65324,-465 65324,-358 M64020,-366 L64020,-370 Q64020,-466 64060.5,-517.5 Q64101,-569 64174,-569 Q64309,-569 64309,-437 Q64309,-378 64273.5,-344 Q64238,-310 64178,-310 Q64097,-310 64020,-366"/> 
            <glyph glyph-name="ൣ" unicode="&#xD63;" horiz-adv-x="164" d=" M65244,-166 Q65165,-84 64999,-84 Q64901,-84 64842,-117.5 Q64783,-151 64760,-210.5 Q64737,-270 64737,-375 L64737,-680 L64587,-680 L64587,-346 Q64587,-251 64564.5,-198 Q64542,-145 64487.5,-114.5 Q64433,-84 64344,-84 Q64257,-84 64175.5,-123 Q64094,-162 64055,-226 Q64131,-188 64203,-188 Q64320,-188 64387,-256.5 Q64454,-325 64454,-438 Q64454,-554 64379,-622 Q64304,-690 64171,-690 Q64037,-690 63959,-600 Q63881,-510 63881,-353 Q63881,-241 63941,-151 Q64001,-61 64109.5,-11 Q64218,39 64351,39 Q64446,39 64521.5,11 Q64597,-17 64677,-90 Q64727,-27 64807,4 Q64887,35 64997,35 Q65154,35 65261,-22 Q65368,-79 65417,-186 Q65556,-230 65628,-324 Q65700,-418 65700,-557 Q65700,-618 65682,-683 Q65664,-748 65633,-784 L65501,-723 Q65523,-693 65536.5,-646 Q65550,-599 65550,-553 Q65550,-411 65455,-335 Q65457,-359 65457,-383 Q65457,-530 65379,-610 Q65301,-690 65163,-690 Q65024,-690 64949,-626 Q64874,-562 64874,-443 Q64874,-312 64970.5,-239 Q65067,-166 65244,-166 M65306,-288 Q65285,-286 65253,-286 Q65141,-286 65080,-329.5 Q65019,-373 65019,-450 Q65019,-506 65053.5,-537 Q65088,-568 65154,-568 Q65314,-568 65314,-368 Q65314,-325 65306,-288 M64020,-366 L64020,-370 Q64020,-466 64060.5,-517.5 Q64101,-569 64174,-569 Q64309,-569 64309,-437 Q64309,-378 64273.5,-344 Q64238,-310 64178,-310 Q64097,-310 64020,-366"/> 
            <glyph glyph-name="൦" unicode="&#xD66;" horiz-adv-x="1039" d=" M100,579 Q100,778 230.5,902.5 Q361,1027 568,1027 Q780,1027 909.5,904.5 Q1039,782 1039,579 Q1039,376 908.5,252.5 Q778,129 569,129 Q356,129 228,252.5 Q100,376 100,579 M277,576 Q277,435 357.5,354 Q438,273 569,273 Q703,273 782.5,354 Q862,435 862,579 Q862,722 783,802.5 Q704,883 568,883 Q433,883 355,802 Q277,721 277,576"/> 
            <glyph glyph-name="൧" unicode="&#xD67;" horiz-adv-x="1705" d=" M1705,0 L457,0 Q341,0 293,-14 Q245,-28 222.5,-56.5 Q200,-85 200,-126 Q200,-198 254,-231 Q308,-264 452,-264 L800,-264 L800,-412 L445,-412 Q225,-412 124,-338 Q23,-264 23,-140 Q23,-61 55.5,1 Q88,63 170.5,103.5 Q253,144 409,144 L695,144 L695,625 Q695,773 726.5,866.5 Q758,960 824,1026 Q890,1092 983,1127 Q1076,1162 1193,1162 Q1365,1162 1481,1097 Q1597,1032 1651,921 Q1705,810 1705,625 M1528,558 Q1528,720 1499,816 Q1470,912 1392,963 Q1314,1014 1197,1014 Q1082,1014 1007.5,963.5 Q933,913 902.5,821 Q872,729 872,574 L872,144 L1528,144"/> 
            <glyph glyph-name="൨" unicode="&#xD68;" horiz-adv-x="1724" d=" M891,111 Q1021,225 1070,328 Q1119,431 1119,554 Q1119,764 1004,889 Q889,1014 690,1014 Q563,1014 465,956.5 Q367,899 314.5,793.5 Q262,688 262,559 Q262,411 324,299 Q386,187 511,111 L410,-18 Q253,71 166.5,223.5 Q80,376 80,567 Q80,741 156.5,878.5 Q233,1016 373,1089 Q513,1162 698,1162 Q883,1162 1019.5,1090 Q1156,1018 1228.5,883 Q1301,748 1301,575 Q1301,454 1263,350.5 Q1225,247 1138,144 L1724,144 L1724,0 L964,0"/> 
            <glyph glyph-name="൩" unicode="&#xD69;" horiz-adv-x="2184" d=" M931,979 Q999,1075 1083.5,1118.5 Q1168,1162 1290,1162 Q1438,1162 1550.5,1090.5 Q1663,1019 1724,889 Q1785,759 1785,598 Q1785,473 1749.5,364 Q1714,255 1624,144 L2184,144 L2184,0 L1454,0 L1380,111 Q1513,238 1559,350 Q1605,462 1605,598 Q1605,780 1516,897.5 Q1427,1015 1288,1015 Q1208,1015 1156,987.5 Q1104,960 1072,908 Q1040,856 1030.5,787.5 Q1021,719 1021,597 L1021,0 L844,0 L844,597 Q844,713 835,779 Q826,845 796.5,898 Q767,951 713.5,982.5 Q660,1014 582,1014 Q443,1014 351.5,895.5 Q260,777 260,597 Q260,438 323,313.5 Q386,189 505,112 L388,-17 Q226,111 153,258.5 Q80,406 80,597 Q80,763 144,892.5 Q208,1022 324,1092 Q440,1162 590,1162 Q703,1162 787,1117.5 Q871,1073 931,979"/> 
            <glyph glyph-name="൪" unicode="&#xD6A;" horiz-adv-x="1447" d=" M1134,1044 Q1282,945 1364.5,786.5 Q1447,628 1447,453 Q1447,226 1337,101 Q1227,-24 1024,-24 Q825,-24 716.5,97.5 Q608,219 608,445 Q608,594 675,729.5 Q742,865 881,995 Q803,1016 720,1016 Q509,1016 385.5,889 Q262,762 262,559 Q262,263 511,111 L410,-18 Q253,71 166.5,223.5 Q80,376 80,567 Q80,742 159.5,879.5 Q239,1017 383.5,1089.5 Q528,1162 719,1162 Q868,1162 1000,1112 Q1066,1173 1095.5,1226 Q1125,1279 1125,1333 Q1125,1397 1083.5,1436 Q1042,1475 966,1475 Q885,1475 813,1453 L773,1593 Q881,1623 993,1623 Q1092,1623 1161.5,1589 Q1231,1555 1267.5,1494.5 Q1304,1434 1304,1369 Q1304,1282 1263,1205 Q1222,1128 1134,1044 M1025,930 Q908,827 848,702.5 Q788,578 788,440 Q788,282 849,201 Q910,120 1026,120 Q1143,120 1204,200.5 Q1265,281 1265,440 Q1265,591 1202,722 Q1139,853 1025,930"/> 
            <glyph glyph-name="൫" unicode="&#xD6B;" horiz-adv-x="1899" d=" M1754,-24 L1596,60 Q1717,260 1717,550 Q1717,786 1634.5,963.5 Q1552,1141 1392.5,1235 Q1233,1329 1009,1329 Q783,1329 616.5,1231.5 Q450,1134 361,951 Q272,768 272,519 Q272,300 341,132 Q410,-36 542.5,-124.5 Q675,-213 863,-213 Q1070,-213 1181,-124.5 Q1292,-36 1292,125 Q1292,266 1204,353 Q1116,440 962,440 L936,440 L936,584 L989,584 Q1136,584 1203,633.5 Q1270,683 1270,776 Q1270,866 1208.5,915 Q1147,964 1028,964 Q859,964 770,857.5 Q681,751 681,558 Q681,276 856,81 L705,-17 Q502,255 502,556 Q502,814 642.5,963 Q783,1112 1029,1112 Q1227,1112 1337,1024.5 Q1447,937 1447,791 Q1447,689 1394.5,621.5 Q1342,554 1230,504 Q1469,389 1469,130 Q1469,-106 1309,-235.5 Q1149,-365 863,-365 Q629,-365 453.5,-258.5 Q278,-152 184,48 Q90,248 90,518 Q90,817 204,1034.5 Q318,1252 530,1366 Q742,1480 1015,1480 Q1295,1480 1493.5,1371 Q1692,1262 1795.5,1050.5 Q1899,839 1899,546 Q1899,224 1754,-24"/> 
            <glyph glyph-name="൬" unicode="&#xD6C;" horiz-adv-x="2415" d=" M1581,977 Q1643,1072 1723.5,1117 Q1804,1162 1928,1162 Q2163,1162 2289,985 Q2415,808 2415,470 Q2415,22 2232,-195 Q2049,-412 1676,-412 Q1533,-412 1429,-391 L1449,-244 Q1531,-262 1671,-262 Q1955,-262 2094,-88.5 Q2233,85 2233,464 Q2233,732 2152,873 Q2071,1014 1925,1014 Q1860,1014 1813.5,994 Q1767,974 1733,928.5 Q1699,883 1685,818.5 Q1671,754 1671,597 L1671,0 L1494,0 L1494,652 Q1494,798 1468.5,869 Q1443,940 1387.5,977.5 Q1332,1015 1242,1015 Q1164,1015 1108,979.5 Q1052,944 1021.5,871.5 Q991,799 991,633 L991,0 L814,0 L814,597 Q814,745 800.5,810.5 Q787,876 753,923 Q719,970 672,992.5 Q625,1015 565,1015 Q480,1015 409.5,961.5 Q339,908 299.5,811 Q260,714 260,597 Q260,282 505,112 L388,-18 Q226,110 153,257.5 Q80,405 80,597 Q80,758 140.5,888.5 Q201,1019 312.5,1090.5 Q424,1162 570,1162 Q678,1162 758,1118 Q838,1074 901,976 Q959,1068 1046,1115 Q1133,1162 1242,1162 Q1359,1162 1443.5,1115.5 Q1528,1069 1581,977"/> 
            <glyph glyph-name="൭" unicode="&#xD6D;" horiz-adv-x="1432" d=" M407,-391 L427,-244 Q510,-262 653,-262 Q950,-262 1100,-87 Q1250,88 1250,432 Q1250,707 1121,860.5 Q992,1014 761,1014 Q574,1014 435,900 Q296,786 258,597 Q374,672 502,672 Q654,672 745,582.5 Q836,493 836,337 Q836,171 741.5,73.5 Q647,-24 486,-24 Q306,-24 193,110 Q80,244 80,484 Q80,681 165.5,835.5 Q251,990 409.5,1076 Q568,1162 766,1162 Q1087,1162 1259.5,968 Q1432,774 1432,427 Q1432,26 1232,-193 Q1032,-412 658,-412 Q513,-412 407,-391 M247,437 Q255,284 320,201.5 Q385,119 490,119 Q568,119 616.5,172.5 Q665,226 665,318 Q665,417 613,473 Q561,529 473,529 Q356,529 247,437"/> 
            <glyph glyph-name="൮" unicode="&#xD6E;" horiz-adv-x="1818" d=" M891,111 Q1021,225 1070,328 Q1119,431 1119,554 Q1119,764 1004,889 Q889,1014 690,1014 Q563,1014 465,956.5 Q367,899 314.5,793.5 Q262,688 262,559 Q262,411 324,299 Q386,187 511,111 L410,-18 Q253,71 166.5,223.5 Q80,376 80,567 Q80,741 156.5,878.5 Q233,1016 373,1089 Q513,1162 698,1162 Q883,1162 1019.5,1090 Q1156,1018 1228.5,883 Q1301,748 1301,575 Q1301,454 1263,350.5 Q1225,247 1138,144 L1639,144 L1639,1135 L1818,1135 L1818,221 Q1818,-25 1735,-157.5 Q1652,-290 1503,-351 Q1354,-412 1137,-412 Q1005,-412 909,-391 L929,-244 Q1004,-262 1130,-262 Q1332,-262 1453.5,-196.5 Q1575,-131 1617,0 L964,0"/> 
            <glyph glyph-name="൯" unicode="&#xD6F;" horiz-adv-x="2113" d=" M947,960 Q1021,1061 1134,1111.5 Q1247,1162 1399,1162 Q1544,1162 1669,1114 Q1734,1176 1762.5,1228 Q1791,1280 1791,1333 Q1791,1397 1749.5,1436 Q1708,1475 1632,1475 Q1551,1475 1479,1453 L1439,1593 Q1547,1623 1659,1623 Q1758,1623 1827.5,1589 Q1897,1555 1933.5,1494.5 Q1970,1434 1970,1369 Q1970,1284 1930.5,1207.5 Q1891,1131 1801,1046 Q1949,945 2031,785.5 Q2113,626 2113,453 Q2113,226 2003,101 Q1893,-24 1690,-24 Q1491,-24 1382.5,97.5 Q1274,219 1274,445 Q1274,593 1343,731.5 Q1412,870 1551,999 Q1482,1017 1411,1017 Q1259,1017 1175,961.5 Q1091,906 1056,815.5 Q1021,725 1021,545 L1021,0 L844,0 L844,597 Q844,713 835,779 Q826,845 796.5,898 Q767,951 713.5,982.5 Q660,1014 582,1014 Q443,1014 351.5,895.5 Q260,777 260,597 Q260,438 323,313.5 Q386,189 505,112 L388,-17 Q226,111 153,258.5 Q80,406 80,597 Q80,763 144,892.5 Q208,1022 324,1092 Q440,1162 590,1162 Q710,1162 797,1113.5 Q884,1065 947,960 M1695,934 Q1577,832 1515.5,706 Q1454,580 1454,440 Q1454,282 1515,201 Q1576,120 1692,120 Q1809,120 1870,200.5 Q1931,281 1931,440 Q1931,591 1869,724 Q1807,857 1695,934"/> 
            <glyph glyph-name="൰" unicode="&#xD70;" horiz-adv-x="2141" d=" M667,1135 L667,486 Q667,337 695,266 Q723,195 782,159 Q841,123 934,123 Q1021,123 1081,162 Q1141,201 1170.5,272.5 Q1200,344 1200,505 L1200,1134 L1377,1134 L1377,541 Q1377,428 1385.5,361.5 Q1394,295 1424,241 Q1454,187 1508,155 Q1562,123 1639,123 Q1778,123 1869.5,242.5 Q1961,362 1961,541 Q1961,858 1716,1032 L1838,1162 Q1999,1032 2070,882.5 Q2141,733 2141,541 Q2141,378 2077.5,248 Q2014,118 1898,47 Q1782,-24 1631,-24 Q1520,-24 1436,19.5 Q1352,63 1287,163 Q1226,70 1135.5,23 Q1045,-24 933,-24 Q757,-24 655,85 Q632,-168 497,-290 Q362,-412 112,-412 Q8,-412 -71,-391 L-56,-244 Q1,-262 99,-262 Q230,-262 316,-216 Q402,-170 445.5,-79 Q489,12 489,208 L489,1135"/> 
            <glyph glyph-name="൱" unicode="&#xD71;" horiz-adv-x="1735" d=" M901,976 Q964,1073 1044,1117.5 Q1124,1162 1248,1162 Q1479,1162 1607,979 Q1735,796 1735,459 Q1735,17 1551,-197.5 Q1367,-412 996,-412 Q853,-412 749,-391 L769,-244 Q851,-262 991,-262 Q1275,-262 1414,-90.5 Q1553,81 1553,444 Q1553,719 1471,866.5 Q1389,1014 1245,1014 Q1180,1014 1133.5,994 Q1087,974 1053,928.5 Q1019,883 1005,818.5 Q991,754 991,597 L991,0 L814,0 L814,597 Q814,745 800.5,810.5 Q787,876 753,923 Q719,970 672,992.5 Q625,1015 565,1015 Q480,1015 409.5,961.5 Q339,908 299.5,811 Q260,714 260,597 Q260,282 505,112 L388,-18 Q226,110 153,257.5 Q80,405 80,597 Q80,758 140.5,888.5 Q201,1019 312.5,1090.5 Q424,1162 570,1162 Q676,1162 756,1119 Q836,1076 901,976"/> 
            <glyph glyph-name="൲" unicode="&#xD72;" horiz-adv-x="2849" d=" M1021,0 L844,0 L844,597 Q844,713 835,779 Q826,845 796.5,898 Q767,951 713.5,982.5 Q660,1014 582,1014 Q443,1014 351.5,895.5 Q260,777 260,597 Q260,280 505,112 L388,-17 Q226,111 153,258.5 Q80,406 80,597 Q80,763 144,892.5 Q208,1022 324,1092 Q440,1162 590,1162 Q707,1162 793,1115.5 Q879,1069 941,971 Q1024,1069 1131,1115.5 Q1238,1162 1383,1162 Q1621,1162 1778.5,1035 Q1936,908 1984,672 L2181,672 Q2152,749 2152,829 Q2152,967 2251,1050.5 Q2350,1134 2506,1134 Q2670,1134 2759.5,1053 Q2849,972 2849,840 Q2849,763 2822,704 Q2795,645 2740,605.5 Q2685,566 2612,547 Q2539,528 2417,528 L1999,528 Q2000,511 2000,495 Q2000,243 1886,109.5 Q1772,-24 1564,-24 Q1386,-24 1290,67 Q1194,158 1194,311 Q1194,407 1236.5,480 Q1279,553 1357,598 Q1435,643 1529.5,657.5 Q1624,672 1777,672 L1806,672 Q1764,838 1654,926 Q1544,1014 1373,1014 Q1254,1014 1173,968 Q1092,922 1056.5,836.5 Q1021,751 1021,597 M2348,672 L2409,672 Q2500,672 2555.5,685.5 Q2611,699 2642,737.5 Q2673,776 2673,833 Q2673,906 2629.5,949 Q2586,992 2508,992 Q2418,992 2370.5,942 Q2323,892 2323,802 Q2323,730 2348,672 M1826,528 L1791,528 Q1666,528 1597.5,520 Q1529,512 1477,487 Q1425,462 1397.5,420.5 Q1370,379 1370,319 Q1370,118 1570,118 Q1701,118 1763.5,213 Q1826,308 1826,505"/> 
            <glyph glyph-name="൳" unicode="&#xD73;" horiz-adv-x="1561" d=" M1561,1062 L1561,911 L994,911 Q783,911 666.5,897.5 Q550,884 470,848.5 Q390,813 336.5,751 Q283,689 260,602 Q375,672 497,672 Q649,672 740,582.5 Q831,493 831,337 Q831,171 736.5,73.5 Q642,-24 481,-24 Q303,-24 191.5,100 Q80,224 80,444 Q80,587 117,692 Q154,797 225.5,869 Q297,941 396.5,985.5 Q496,1030 614.5,1046 Q733,1062 922,1062 M241,436 Q241,287 306.5,203 Q372,119 486,119 Q565,119 612.5,173.5 Q660,228 660,323 Q660,419 607.5,474 Q555,529 468,529 Q352,529 241,436"/> 
            <glyph glyph-name="൴" unicode="&#xD74;" horiz-adv-x="1805" d=" M1336,1091 Q1416,1162 1449.5,1218.5 Q1483,1275 1483,1333 Q1483,1397 1441.5,1436 Q1400,1475 1324,1475 Q1243,1475 1171,1453 L1131,1593 Q1239,1623 1351,1623 Q1450,1623 1519.5,1589 Q1589,1555 1625.5,1494.5 Q1662,1434 1662,1369 Q1662,1279 1617,1198 Q1572,1117 1471,1025 Q1635,930 1720,783.5 Q1805,637 1805,453 Q1805,226 1695,101 Q1585,-24 1382,-24 Q1183,-24 1074.5,97.5 Q966,219 966,445 Q966,587 1029,720 Q1092,853 1218,976 Q1084,1014 918,1014 Q646,1014 473,906 Q300,798 258,597 Q373,672 502,672 Q654,672 745,582.5 Q836,493 836,337 Q836,171 741.5,73.5 Q647,-24 486,-24 Q369,-24 275,37 Q181,98 130.5,211.5 Q80,325 80,476 Q80,689 181,844.5 Q282,1000 473,1081 Q664,1162 918,1162 Q1159,1162 1336,1091 M1365,914 Q1256,813 1201,692.5 Q1146,572 1146,440 Q1146,282 1207,201 Q1268,120 1384,120 Q1501,120 1562,200.5 Q1623,281 1623,440 Q1623,598 1557,720 Q1491,842 1365,914 M247,437 Q253,284 317.5,201.5 Q382,119 491,119 Q570,119 617.5,173.5 Q665,228 665,323 Q665,419 612.5,474 Q560,529 473,529 Q356,529 247,437"/> 
            <glyph glyph-name="൵" unicode="&#xD75;" horiz-adv-x="2340" d=" M1071,627 Q1071,792 1031,867.5 Q991,943 917,979 Q843,1015 731,1015 Q546,1015 418.5,902 Q291,789 259,594 Q377,672 507,672 Q659,672 750,582.5 Q841,493 841,337 Q841,171 746.5,73.5 Q652,-24 491,-24 Q372,-24 278.5,36.5 Q185,97 135,214.5 Q85,332 85,494 Q85,695 166,846.5 Q247,998 396.5,1080 Q546,1162 734,1162 Q878,1162 984,1116 Q1090,1070 1177,964 Q1251,1063 1363,1112.5 Q1475,1162 1626,1162 Q1771,1162 1896,1114 Q1961,1176 1989.5,1228 Q2018,1280 2018,1333 Q2018,1397 1976.5,1436 Q1935,1475 1859,1475 Q1778,1475 1706,1453 L1666,1593 Q1774,1623 1886,1623 Q1985,1623 2054.5,1589 Q2124,1555 2160.5,1494.5 Q2197,1434 2197,1369 Q2197,1284 2157.5,1207.5 Q2118,1131 2028,1046 Q2176,945 2258,785.5 Q2340,626 2340,453 Q2340,226 2230,101 Q2120,-24 1917,-24 Q1718,-24 1609.5,97.5 Q1501,219 1501,445 Q1501,593 1570,731.5 Q1639,870 1778,999 Q1709,1017 1638,1017 Q1486,1017 1402,961.5 Q1318,906 1283,815.5 Q1248,725 1248,545 L1248,0 L1071,0 M1922,934 Q1804,832 1742.5,706 Q1681,580 1681,440 Q1681,282 1742,201 Q1803,120 1919,120 Q2036,120 2097,200.5 Q2158,281 2158,440 Q2158,591 2096,724 Q2034,857 1922,934 M252,436 Q257,285 321,202 Q385,119 495,119 Q574,119 622,172 Q670,225 670,322 Q670,419 618,474 Q566,529 478,529 Q362,529 252,436"/> 
            <glyph glyph-name="൹" unicode="&#xD79;" horiz-adv-x="2304" d=" M1021,0 L844,0 L844,597 Q844,713 835,779 Q826,845 796.5,898 Q767,951 713.5,982.5 Q660,1014 582,1014 Q443,1014 351.5,895.5 Q260,777 260,597 Q260,280 505,112 L388,-17 Q226,111 153,258.5 Q80,406 80,597 Q80,763 144,892.5 Q208,1022 324,1092 Q440,1162 590,1162 Q707,1162 793,1115.5 Q879,1069 941,971 Q1024,1069 1131,1115.5 Q1238,1162 1383,1162 Q1621,1162 1778.5,1035 Q1936,908 1984,672 L2304,672 L2304,528 L1999,528 Q2000,511 2000,495 Q2000,243 1886,109.5 Q1772,-24 1564,-24 Q1386,-24 1290,67 Q1194,158 1194,311 Q1194,407 1236.5,480 Q1279,553 1357,598 Q1435,643 1529.5,657.5 Q1624,672 1777,672 L1806,672 Q1764,838 1654,926 Q1544,1014 1373,1014 Q1254,1014 1173,968 Q1092,922 1056.5,836.5 Q1021,751 1021,597 M1826,528 L1791,528 Q1666,528 1597.5,520 Q1529,512 1477,487 Q1425,462 1397.5,420.5 Q1370,379 1370,319 Q1370,118 1570,118 Q1701,118 1763.5,213 Q1826,308 1826,505"/> 
            <glyph glyph-name="ൺ" unicode="&#xD7A;" horiz-adv-x="3050" d=" M1071,0 L1071,627 Q1071,792 1031,867.5 Q991,943 917,979 Q843,1015 731,1015 Q546,1015 418.5,902 Q291,789 259,594 Q377,672 507,672 Q659,672 750,582.5 Q841,493 841,337 Q841,171 746.5,73.5 Q652,-24 491,-24 Q372,-24 278.5,36.5 Q185,97 135,214.5 Q85,332 85,494 Q85,695 166,846.5 Q247,998 396.5,1080 Q546,1162 734,1162 Q871,1162 974,1120.5 Q1077,1079 1162,982 Q1293,1162 1515,1162 Q1643,1162 1731,1114 Q1819,1066 1883,959 Q1957,1060 2070,1111 Q2183,1162 2336,1162 Q2481,1162 2606,1114 Q2671,1176 2699.5,1228 Q2728,1280 2728,1333 Q2728,1397 2686.5,1436 Q2645,1475 2569,1475 Q2488,1475 2416,1453 L2376,1593 Q2484,1623 2596,1623 Q2695,1623 2764.5,1589 Q2834,1555 2870.5,1494.5 Q2907,1434 2907,1369 Q2907,1284 2867.5,1207.5 Q2828,1131 2738,1046 Q2886,945 2968,785.5 Q3050,626 3050,453 Q3050,226 2940,101 Q2830,-24 2627,-24 Q2428,-24 2319.5,97.5 Q2211,219 2211,445 Q2211,593 2280,731.5 Q2349,870 2488,999 Q2419,1017 2348,1017 Q2200,1017 2117,964.5 Q2034,912 1996.5,825 Q1959,738 1958,561 L1958,0 L1781,0 L1781,652 Q1781,801 1753,872 Q1725,943 1666,979 Q1607,1015 1514,1015 Q1428,1015 1368.5,977.5 Q1309,940 1278.5,867.5 Q1248,795 1248,633 L1248,0 M2632,934 Q2514,832 2452.5,706 Q2391,580 2391,440 Q2391,282 2452,201 Q2513,120 2629,120 Q2746,120 2807,200.5 Q2868,281 2868,440 Q2868,591 2806,724 Q2744,857 2632,934 M252,436 Q257,285 321,202 Q385,119 495,119 Q574,119 622,172 Q670,225 670,322 Q670,419 618,474 Q566,529 478,529 Q362,529 252,436"/> 
            <glyph glyph-name="ൻ" unicode="&#xD7B;" horiz-adv-x="2113" d=" M947,960 Q1021,1061 1134,1111.5 Q1247,1162 1399,1162 Q1544,1162 1669,1114 Q1734,1176 1762.5,1228 Q1791,1280 1791,1333 Q1791,1397 1749.5,1436 Q1708,1475 1632,1475 Q1551,1475 1479,1453 L1439,1593 Q1547,1623 1659,1623 Q1758,1623 1827.5,1589 Q1897,1555 1933.5,1494.5 Q1970,1434 1970,1369 Q1970,1284 1930.5,1207.5 Q1891,1131 1801,1046 Q1949,945 2031,785.5 Q2113,626 2113,453 Q2113,226 2003,101 Q1893,-24 1690,-24 Q1491,-24 1382.5,97.5 Q1274,219 1274,445 Q1274,593 1343,731.5 Q1412,870 1551,999 Q1482,1017 1411,1017 Q1259,1017 1175,961.5 Q1091,906 1056,815.5 Q1021,725 1021,545 L1021,0 L844,0 L844,597 Q844,713 835,779 Q826,845 796.5,898 Q767,951 713.5,982.5 Q660,1014 582,1014 Q443,1014 351.5,895.5 Q260,777 260,597 Q260,438 323,313.5 Q386,189 505,112 L388,-17 Q226,111 153,258.5 Q80,406 80,597 Q80,763 144,892.5 Q208,1022 324,1092 Q440,1162 590,1162 Q710,1162 797,1113.5 Q884,1065 947,960 M1695,934 Q1577,832 1515.5,706 Q1454,580 1454,440 Q1454,282 1515,201 Q1576,120 1692,120 Q1809,120 1870,200.5 Q1931,281 1931,440 Q1931,591 1869,724 Q1807,857 1695,934"/> 
            <glyph glyph-name="ർ" unicode="&#xD7C;" horiz-adv-x="1447" d=" M1134,1044 Q1282,945 1364.5,786.5 Q1447,628 1447,453 Q1447,226 1337,101 Q1227,-24 1024,-24 Q825,-24 716.5,97.5 Q608,219 608,445 Q608,594 675,729.5 Q742,865 881,995 Q803,1016 720,1016 Q509,1016 385.5,889 Q262,762 262,559 Q262,263 511,111 L410,-18 Q253,71 166.5,223.5 Q80,376 80,567 Q80,742 159.5,879.5 Q239,1017 383.5,1089.5 Q528,1162 719,1162 Q868,1162 1000,1112 Q1066,1173 1095.5,1226 Q1125,1279 1125,1333 Q1125,1397 1083.5,1436 Q1042,1475 966,1475 Q885,1475 813,1453 L773,1593 Q881,1623 993,1623 Q1092,1623 1161.5,1589 Q1231,1555 1267.5,1494.5 Q1304,1434 1304,1369 Q1304,1282 1263,1205 Q1222,1128 1134,1044 M1025,930 Q908,827 848,702.5 Q788,578 788,440 Q788,282 849,201 Q910,120 1026,120 Q1143,120 1204,200.5 Q1265,281 1265,440 Q1265,591 1202,722 Q1139,853 1025,930"/> 
            <glyph glyph-name="ൽ" unicode="&#xD7D;" horiz-adv-x="2454" d=" M1212,972 Q1329,873 1392.5,737.5 Q1456,602 1456,448 Q1456,225 1346.5,100.5 Q1237,-24 1039,-24 Q843,-24 732,101 Q621,226 621,448 Q621,617 696,755.5 Q771,894 921,995 Q838,1021 736,1021 Q593,1021 485.5,965 Q378,909 320,802.5 Q262,696 262,559 Q262,263 511,111 L410,-18 Q253,71 166.5,223.5 Q80,376 80,567 Q80,743 160,880 Q240,1017 384,1089.5 Q528,1162 718,1162 Q816,1162 899,1142 Q982,1122 1069,1077 Q1252,1162 1537,1162 Q1810,1162 1980,1087 L1982,1089 Q2067,1164 2099.5,1220.5 Q2132,1277 2132,1333 Q2132,1397 2090.5,1436 Q2049,1475 1973,1475 Q1892,1475 1820,1453 L1780,1593 Q1888,1623 2000,1623 Q2099,1623 2168.5,1589 Q2238,1555 2274.5,1494.5 Q2311,1434 2311,1369 Q2311,1279 2266.5,1198.5 Q2222,1118 2118,1023 Q2282,930 2368,783 Q2454,636 2454,453 Q2454,226 2344,101 Q2234,-24 2031,-24 Q1832,-24 1723.5,97.5 Q1615,219 1615,445 Q1615,587 1677,718.5 Q1739,850 1863,972 Q1720,1014 1535,1014 Q1353,1014 1212,972 M1067,912 Q934,839 867.5,724 Q801,609 801,453 Q801,287 861.5,203.5 Q922,120 1039,120 Q1276,120 1276,453 Q1276,587 1221,709.5 Q1166,832 1067,912 M2011,911 Q1903,809 1849,691 Q1795,573 1795,440 Q1795,282 1856,201 Q1917,120 2033,120 Q2150,120 2211,200.5 Q2272,281 2272,440 Q2272,598 2205.5,718.5 Q2139,839 2011,911"/> 
            </font>
</defs>
</svg>
